<?xml version="1.0" encoding="UTF-8" standalone="no"?>
<!-- Generator: Adobe Illustrator 15.0.2, SVG Export Plug-In . SVG Version: 6.00 Build 0)  -->

<svg
   xmlns:dc="http://purl.org/dc/elements/1.1/"
   xmlns:cc="http://creativecommons.org/ns#"
   xmlns:rdf="http://www.w3.org/1999/02/22-rdf-syntax-ns#"
   xmlns:svg="http://www.w3.org/2000/svg"
   xmlns="http://www.w3.org/2000/svg"
   xmlns:sodipodi="http://sodipodi.sourceforge.net/DTD/sodipodi-0.dtd"
   xmlns:inkscape="http://www.inkscape.org/namespaces/inkscape"
   version="1.1"
   id="Capa_1"
   sodipodi:docname="close-x-gray.svg"
   inkscape:version="0.48.1 "
   x="0px"
   y="0px"
   width="100px"
   height="100px"
   viewBox="0 0 100 100"
   enable-background="new 0 0 100 100"
   xml:space="preserve"
   inkscape:export-filename="C:\Craig\Dropbox\ITS\go-responsive\images\close-x-gray.png"
   inkscape:export-xdpi="25.200001"
   inkscape:export-ydpi="25.200001"><metadata
   id="metadata8"><rdf:RDF><cc:Work
       rdf:about=""><dc:format>image/svg+xml</dc:format><dc:type
         rdf:resource="http://purl.org/dc/dcmitype/StillImage" /><dc:title></dc:title></cc:Work></rdf:RDF></metadata><defs
   id="defs6" />
<sodipodi:namedview
   bordercolor="#666666"
   borderopacity="1"
   id="namedview238"
   inkscape:window-height="1002"
   objecttolerance="10"
   pagecolor="#ffffff"
   gridtolerance="10"
   guidetolerance="10"
   inkscape:pageopacity="0"
   inkscape:pageshadow="2"
   inkscape:window-width="1280"
   showgrid="false"
   inkscape:cy="50"
   inkscape:zoom="2.36"
   inkscape:cx="50"
   inkscape:window-x="0"
   inkscape:window-y="0"
   inkscape:window-maximized="1"
   inkscape:current-layer="Capa_1">
	</sodipodi:namedview>
<path
   d="M 79.74,70.372 59.366,50 79.738,29.628 c 2.588,-2.587 2.586,-6.781 0,-9.367 -2.587,-2.587 -6.78,-2.587 -9.366,0 L 50,40.633 29.627,20.26 c -2.586,-2.586 -6.78,-2.586 -9.367,0 -2.586,2.587 -2.586,6.78 0,9.367 L 40.633,50 20.26,70.372 c -2.586,2.589 -2.586,6.782 0,9.368 2.586,2.586 6.78,2.586 9.367,0 L 50,59.368 70.372,79.74 c 2.586,2.586 6.779,2.586 9.368,0 2.586,-2.589 2.586,-6.782 0,-9.368 z"
   id="path4"
   inkscape:connector-curvature="0"
   style="fill:#666666" />
</svg>