<?xml version="1.0" encoding="UTF-8" standalone="no"?>
<!-- Generator: Adobe Illustrator 13.0.0, SVG Export Plug-In . SVG Version: 6.00 Build 14948)  -->

<svg
   xmlns:dc="http://purl.org/dc/elements/1.1/"
   xmlns:cc="http://creativecommons.org/ns#"
   xmlns:rdf="http://www.w3.org/1999/02/22-rdf-syntax-ns#"
   xmlns:svg="http://www.w3.org/2000/svg"
   xmlns="http://www.w3.org/2000/svg"
   xmlns:sodipodi="http://sodipodi.sourceforge.net/DTD/sodipodi-0.dtd"
   xmlns:inkscape="http://www.inkscape.org/namespaces/inkscape"
   version="1.1"
   id="Layer_1"
   x="0px"
   y="0px"
   width="703.94354"
   height="183.612"
   viewBox="0 0 703.94354 183.612"
   enable-background="new 0 0 300 300"
   xml:space="preserve"
   inkscape:version="0.48.2 r9819"
   sodipodi:docname="logo-grey-adobe.svg"
   inkscape:export-filename="/Users/craig/Dropbox/ITS/go-responsive/images/logo-grey-adobe.png"
   inkscape:export-xdpi="19.606562"
   inkscape:export-ydpi="19.606562"><metadata
   id="metadata25"><rdf:RDF><cc:Work
       rdf:about=""><dc:format>image/svg+xml</dc:format><dc:type
         rdf:resource="http://purl.org/dc/dcmitype/StillImage" /><dc:title></dc:title></cc:Work></rdf:RDF></metadata><defs
   id="defs23" /><sodipodi:namedview
   pagecolor="#ffffff"
   bordercolor="#666666"
   borderopacity="1"
   objecttolerance="10"
   gridtolerance="10"
   guidetolerance="10"
   inkscape:pageopacity="0"
   inkscape:pageshadow="2"
   inkscape:window-width="1367"
   inkscape:window-height="722"
   id="namedview21"
   showgrid="false"
   fit-margin-top="0"
   fit-margin-left="0"
   fit-margin-right="0"
   fit-margin-bottom="0"
   inkscape:zoom="0.78666667"
   inkscape:cx="605.23208"
   inkscape:cy="37.569441"
   inkscape:window-x="0"
   inkscape:window-y="0"
   inkscape:window-maximized="0"
   inkscape:current-layer="Layer_1" />





<g
   id="g3002"
   transform="matrix(2.278851,0,0,2.278851,133.02526,-500.41518)"
   style="fill:#3f3f3f;fill-opacity:1"><path
     inkscape:connector-curvature="0"
     id="path5"
     d="m 70.941,268.111 -2.433,-14.412 c -0.694,-4.154 -1.581,-10.646 -2.257,-15.143 h -0.264 c -0.711,4.531 -1.704,11.207 -2.433,15.178 l -2.618,14.377 h 10.005 z m -11.312,9.391 -3.162,15.994 H 44.786 l 14.571,-66.541 h 14.316 l 13.236,66.541 H 75.167 L 72.075,277.502 H 59.629 z"
     style="fill:#3f3f3f;fill-opacity:1" /><path
     inkscape:connector-curvature="0"
     id="path7"
     d="m 113.496,263.773 c 0,-0.887 0,-1.924 -0.176,-2.873 -0.465,-3.285 -2.213,-6.244 -5.024,-6.244 -4.822,0 -6.596,6.947 -6.596,15.072 0,9.336 2.529,14.65 6.429,14.65 1.783,0 3.838,-0.914 4.954,-4.832 0.272,-0.781 0.413,-1.826 0.413,-3.047 v -12.726 z m 11.989,-38.584 v 54.508 c 0,4.32 0.22,9.635 0.396,13.789 h -10.355 l -0.676,-5.543 h -0.246 c -1.739,3.418 -5.524,6.324 -10.048,6.324 -9.916,0 -14.834,-10.943 -14.834,-24.76 0,-16.836 7.333,-25.023 15.326,-25.023 4.181,0 6.886,2.047 8.248,5.008 h 0.202 v -24.303 h 11.987 z"
     style="fill:#3f3f3f;fill-opacity:1" /><path
     inkscape:connector-curvature="0"
     id="path9"
     d="m 150.455,285.072 c 4.576,0 5.709,-8.625 5.709,-15.766 0,-6.789 -1.133,-15.635 -5.91,-15.635 -5.06,0 -6.123,8.846 -6.123,15.635 0,8.195 1.335,15.766 6.218,15.766 h 0.106 z m -0.228,9.196 c -11.049,0 -17.979,-8.871 -17.979,-24.75 0,-17.33 8.897,-25.033 18.26,-25.033 10.9,0 17.733,9.303 17.733,24.752 0,19.85 -10.706,25.031 -17.917,25.031 h -0.097 z"
     style="fill:#3f3f3f;fill-opacity:1" /><path
     inkscape:connector-curvature="0"
     id="path11"
     d="m 186.932,276.271 c 0,1.203 0.22,2.328 0.475,3.082 1.203,4.033 3.241,5.025 4.874,5.025 4.638,0 6.509,-5.877 6.509,-15.275 0,-8.555 -1.977,-14.447 -6.562,-14.447 -2.274,0 -4.189,2.469 -4.848,5.121 -0.229,0.834 -0.448,2.133 -0.448,3.029 v 13.465 z m -11.99,-51.082 h 11.989 v 25.119 h 0.193 c 2.362,-3.707 5.507,-5.824 10.074,-5.824 9.038,0 13.579,10.277 13.579,23.715 0,16.979 -6.772,26.068 -15.547,26.068 -4.181,0 -6.965,-1.854 -9.477,-6.551 H 185.5 l -0.667,5.77 h -10.294 c 0.176,-3.996 0.403,-9.469 0.403,-13.789 v -54.508 z"
     style="fill:#3f3f3f;fill-opacity:1" /><path
     inkscape:connector-curvature="0"
     id="path13"
     d="m 239.508,264.783 c 0.062,-6.771 -1.924,-11.516 -5.727,-11.516 -4.339,0 -6.184,6.352 -6.315,11.516 h 12.042 z m -12.086,8.477 c 0.141,8.721 4.726,11.559 10.417,11.559 3.609,0 6.701,-0.801 8.985,-1.66 l 1.616,8.625 c -3.18,1.369 -8.09,2.23 -12.798,2.23 -12.867,0 -19.894,-8.793 -19.894,-23.811 0,-16.117 8.151,-25.797 18.796,-25.797 10.285,0 15.985,8.555 15.985,22.52 0,3.197 -0.132,4.998 -0.343,6.402 l -22.764,-0.068 z"
     style="fill:#3f3f3f;fill-opacity:1" /></g>


<g
   id="g3009"
   transform="translate(-43.073,-7.771)"
   style="fill:#3f3f3f;fill-opacity:1"><polygon
     style="fill:#3f3f3f;fill-opacity:1"
     id="polygon15"
     points="250.539,7.771 250.539,191.383 173.845,7.771 " /><polygon
     style="fill:#3f3f3f;fill-opacity:1"
     id="polygon17"
     points="43.073,7.771 43.073,191.383 119.811,7.771 " /><polygon
     style="fill:#3f3f3f;fill-opacity:1"
     id="polygon19"
     points="146.837,75.427 195.697,191.373 163.683,191.373 149.067,154.441 113.294,154.441 " /></g>
</svg>