<?xml version="1.0" encoding="UTF-8" standalone="no"?>
<svg
   xmlns:dc="http://purl.org/dc/elements/1.1/"
   xmlns:cc="http://creativecommons.org/ns#"
   xmlns:rdf="http://www.w3.org/1999/02/22-rdf-syntax-ns#"
   xmlns:svg="http://www.w3.org/2000/svg"
   xmlns="http://www.w3.org/2000/svg"
   xmlns:sodipodi="http://sodipodi.sourceforge.net/DTD/sodipodi-0.dtd"
   xmlns:inkscape="http://www.inkscape.org/namespaces/inkscape"
   version="1.1"
   id="Layer_1"
   x="0px"
   y="0px"
   width="68"
   height="68"
   viewBox="0 0 68 68"
   enable-background="new 0 0 100 100"
   xml:space="preserve"
   inkscape:version="0.48.2 r9819"
   sodipodi:docname="code.svg"
   inkscape:export-filename="/Users/craig/Dropbox/ITS/RWD-Demo/images/code@2x.png"
   inkscape:export-xdpi="90"
   inkscape:export-ydpi="90"><metadata
   id="metadata3419"><rdf:RDF><cc:Work
       rdf:about=""><dc:format>image/svg+xml</dc:format><dc:type
         rdf:resource="http://purl.org/dc/dcmitype/StillImage" /><dc:title /></cc:Work></rdf:RDF></metadata><defs
   id="defs3417" /><sodipodi:namedview
   pagecolor="#ffffff"
   bordercolor="#666666"
   borderopacity="1"
   objecttolerance="10"
   gridtolerance="10"
   guidetolerance="10"
   inkscape:pageopacity="0"
   inkscape:pageshadow="2"
   inkscape:window-width="1361"
   inkscape:window-height="713"
   id="namedview3415"
   showgrid="false"
   inkscape:zoom="5.05"
   inkscape:cx="50.530911"
   inkscape:cy="34.158416"
   inkscape:window-x="0"
   inkscape:window-y="0"
   inkscape:window-maximized="0"
   inkscape:current-layer="Layer_1" />
<path
   display="none"
   d="m 69.172,-20.735 c -0.191,-0.192 -0.502,-0.192 -0.695,0 L 11.639,36.029 c -0.192,0.191 -0.192,0.501 0,0.692 l 19.207,19.184 c 0.096,0.095 0.222,0.143 0.348,0.143 0.125,0 0.251,-0.048 0.347,-0.143 L 88.38,-0.86 c 0.093,-0.092 0.145,-0.216 0.145,-0.347 0,-0.131 -0.052,-0.255 -0.145,-0.347 L 69.172,-20.735 z"
   id="path3401"
   inkscape:connector-curvature="0"
   style="display:none" />
<path
   display="none"
   d="m 96.846,-22.88 -6.319,-6.311 C 88.713,-31.002 86.301,-32 83.735,-32 c -2.564,0 -4.977,0.998 -6.79,2.809 l -6.319,6.311 c -0.093,0.092 -0.145,0.216 -0.145,0.347 0,0.13 0.052,0.254 0.145,0.346 l 19.207,19.182 c 0.092,0.092 0.218,0.144 0.348,0.144 0.131,0 0.255,-0.052 0.346,-0.144 l 6.319,-6.311 c 1.814,-1.812 2.813,-4.22 2.813,-6.783 0,-2.561 -0.999,-4.969 -2.813,-6.781 z"
   id="path3403"
   inkscape:connector-curvature="0"
   style="display:none" />
<path
   display="none"
   d="m 10.358,37.967 c -0.122,-0.121 -0.296,-0.172 -0.464,-0.129 -0.167,0.04 -0.3,0.165 -0.351,0.33 L 0.363,67.363 C 0.308,67.541 0.357,67.732 0.49,67.861 0.584,67.952 0.707,68 0.832,68 0.886,68 0.942,67.989 0.996,67.971 L 29.383,57.959 c 0.159,-0.056 0.278,-0.188 0.315,-0.354 0.037,-0.164 -0.012,-0.337 -0.132,-0.455 L 10.358,37.967 z"
   id="path3405"
   inkscape:connector-curvature="0"
   style="display:none" />


<path
   d="M 1.9140989,38.005499 C 0.96815826,37.089119 0.3366335,35.25929 0.3366335,33.656113 c 0,-1.602199 0.47330693,-3.089118 1.6562376,-3.890218 H 1.9140989 C 7.5136632,24.959297 15.322218,18.550499 20.527921,14.08681 v 10.64388 c -2.050773,1.716503 -4.811169,3.662589 -11.7518815,9.04168 l 0.078772,0.113327 c 3.7070102,2.404276 7.9660992,6.065888 11.6731092,9.270287 V 53.914167 L 1.9140989,38.005499 z"
   id="path3407"
   style="fill:#5e5e5e;fill-opacity:1"
   inkscape:connector-curvature="0" /><path
   d="m 66.085901,29.994501 c 0.945267,0.91638 1.577466,2.747186 1.577466,4.349386 0,1.602199 -0.473307,3.089118 -1.656911,3.890218 h 0.07945 C 60.486337,43.040703 52.677109,49.449501 47.472079,53.91319 V 43.26931 c 2.050773,-1.715526 4.811169,-3.661612 11.751882,-9.040704 L 59.145188,34.11528 C 55.438852,31.711004 51.179089,28.049392 47.472079,24.844993 V 14.08681 l 18.613822,15.907691 z"
   id="path3409"
   style="fill:#5e5e5e;fill-opacity:1"
   inkscape:connector-curvature="0" /><path
   d="m 31.576911,55.340515 h -4.720277 l 9.486336,-42.68103 h 4.800396 l -9.566455,42.68103 z"
   id="path3411"
   style="fill:#5e5e5e;fill-opacity:1"
   inkscape:connector-curvature="0" />
<text
   font-size="177.3347"
   id="text3413"
   style="font-size:177.33470154px;font-family:Courier-Bold"
   x="-2321"
   y="-1341">&lt;/&gt;</text>


</svg>