<?xml version="1.0" encoding="utf-8"?>
<!-- Generator: Adobe Illustrator 15.0.2, SVG Export Plug-In . SVG Version: 6.00 Build 0)  -->
<!DOCTYPE svg PUBLIC "-//W3C//DTD SVG 1.1//EN" "http://www.w3.org/Graphics/SVG/1.1/DTD/svg11.dtd">
<svg version="1.1"
	 id="svg2837" sodipodi:docname="logo-grey-california.svg" inkscape:version="0.48.2 r9819" inkscape:export-filename="/Users/craig/Dropbox/ITS/go-responsive/images/logo-grey-california.png" inkscape:export-xdpi="5.1428571" inkscape:export-ydpi="5.1428571" xmlns:inkscape="http://www.inkscape.org/namespaces/inkscape" xmlns:sodipodi="http://sodipodi.sourceforge.net/DTD/sodipodi-0.dtd" xmlns:rdf="http://www.w3.org/1999/02/22-rdf-syntax-ns#" xmlns:svg="http://www.w3.org/2000/svg" xmlns:cc="http://creativecommons.org/ns#" xmlns:dc="http://purl.org/dc/elements/1.1/"
	 xmlns="http://www.w3.org/2000/svg" xmlns:xlink="http://www.w3.org/1999/xlink" x="0px" y="0px" width="2201.57px" height="700px"
	 viewBox="0 0 2201.57 700" enable-background="new 0 0 2201.57 700" xml:space="preserve">
<defs>
	
	
		<inkscape:perspective  id="perspective2845" inkscape:vp_y="0 : 1000 : 0" sodipodi:type="inkscape:persp3d" inkscape:vp_x="0 : 0.5 : 1" inkscape:vp_z="1 : 0.5 : 1" inkscape:persp3d-origin="0.5 : 0.33333333 : 1">
		</inkscape:perspective>
</defs>
<sodipodi:namedview  id="namedview2839" borderopacity="1" bordercolor="#666666" pagecolor="#ffffff" objecttolerance="10" gridtolerance="10" guidetolerance="10" inkscape:pageopacity="0" inkscape:pageshadow="2" inkscape:window-width="1366" inkscape:window-height="724" showgrid="false" inkscape:zoom="0.44845607" fit-margin-left="0" inkscape:cx="1244.3463" inkscape:cy="229.19471" inkscape:window-x="0" inkscape:window-y="0" inkscape:window-maximized="0" inkscape:current-layer="g2847" fit-margin-top="0" fit-margin-right="0" fit-margin-bottom="0">
	</sodipodi:namedview>
<path id="path3548" inkscape:connector-curvature="0" fill="#3F3F3F" d="M26.196,34.354l0.049,0.102l-0.857,6.223l-3.729,7.373
	l3.046,1.934l1.548,2.043l0.486,9.751l0.972,1.648l-0.547,6.265l-4.536,13.002l-2.421,4.525l-0.94,0.186l-0.776,5.634l0.94-0.186
	l0.929,1.958l-2.347,6.048l-6.355,8.809l0.507,0.669l2.526-2.996l-1.709,3.708l-0.979,0.464l-0.426-1.257l-2.205,2.725L1.791,124.05
	L0,128.346l1.312,3.525l0.048,4.233l-1.152,3.784l6.902,9.437l3.317,2.255l0.805,2.855l-0.014,2.396l1.679,0.862l0.5,0.952
	l3.33,6.515l0.489,3.096l2.372,2.472l-0.466,5.677l1.622,3.567l-0.695,5.046l0.489,3.096l-3.674,6.75l0.538,0.673l-1.907,4.911
	l0.964,1.931l-0.743,0.812l0.855,0.433l-0.75,1.095l1.119,2.867l-0.328,2.384l1.808,4.507l0.319,6.385l-0.564,2.036l-2.755,2.365
	l0.302,2.155l4.921,8.249l5.756,6.534l4.63,10.354l8.48,8.739l1.917,6.005l-0.638,2.341l0.426,1.258l1.834-0.031l2.017,2.991
	l-0.248,1.795l-0.897-0.124l1.34,5.61l-5.221,9.28l2.929,0.719l-0.662-1.605l2.24-0.922l3.746,1.431l5.199,8.287l3.827,0.843
	l3.46,3.505l1.436,2.627l3.138-0.798l-0.074-1.524l-1.789-2.36l1.053,1.06l-0.144-1.25l0.577,0.395l1.239,2l-0.224-0.662
	l1.257-0.426l-2.76-4.008l1.486,0.205l-0.96-1.961l2.855-0.806l-2.137-2.124l1.427-3.715l-1.077-3.177l0.469,0.948l2.663,0.367
	l2-1.238l0.12-0.867l3.824,2.924l2.787,4.043l-2.441,2.377l-1.876,0.341l-1.405-0.793l-0.286,2.074l-1.846,0.345l-0.167,1.207
	l-1.362-1.102l0.117,1.214l1.548,2.043l-0.433,0.855l1.486,0.205l-0.112-1.246l2.415,2.162l-0.631,0.229l0.736,1.3l-0.619-0.085
	l0.65,1.919l-0.627,0.198l0.546,0.391l-1.567,0.384l0.855,0.433l-1.567,0.383l0.859,0.402l-0.515,1.443l1.486,0.205l0.186,0.94
	l2.26,1.226l-0.979,0.465l0.693,1.609l1.32,1.412l0.712-0.817l0.197,0.627l1.2,2.279l-0.118,5.441l1.027,5.599l2.934,0.688
	l-0.248,1.795l2.032,0.596l-1.486-0.205l0.19,0.91l-2.934-0.688l-1.32-1.412l-0.264-2.434l-1.567,0.383l-1.521-2.007l0.364-0.581
	l-1.486-0.205l0.36-0.55l-0.991,0.778l0.754-1.126l-1.207-0.166l-0.117-1.215l-4.841-2.181l-0.774-1.021l1.177,0.162l-0.074-1.524
	l-1.207-0.166l-0.155-0.937l1.029-1.057l-0.824-0.429l0.627-0.198l-0.298-2.186l1.927-0.933l-0.972-1.648l0.367-2.663l-1.32-1.412
	l-2.972-0.409l-0.754,1.126l-1.567,0.383l-0.28,8.447l-0.646,2.624l-1.288,0.422l-0.491,3.561l0.527,2.817l1.289-0.422l1.014,1.338
	l1.558,8.385l-2.076,6.37l0.136,3.362l1.591,1.733l1.231,4.113l1.757,0.526l2.582,5.529l3.929,4.452l3.982,1.779l1.919-0.65
	l1.993,0.874l2.279-1.2l2.872,3.424l2.494,8.229l-2.548,7.504l-2.65,3.894l-1.567,0.384l-2.098-2.403l-2.874,3.232l2.415,2.162
	l-0.205,1.486l-1.524,0.074l1.279,8.346l-0.738,5.355l2.446,2.167l1.397,2.905l4.439,3.04l3.492,5.339l2.115,6.632l3.115,1.66
	l1.093,7.405l5.632,7.432l0.013,4.261l1.348,3.498l5.387,2.571l2.586,5.498l4.27,6.33l4.644,1.554l1.01,1.37l0.612,2.197
	l-0.553,1.723l0.937-0.155l1.2,2.278l-2.279,1.2l0.761-3.238l-3.047,6.552l0.731,1.331l5.292,5.555l0.588,0.081l0.471-1.134
	l2.036,0.564l2.953,2.836l-0.149,5.437l-1.307,2.849l-2.038,6.091l1.177,0.162l1.471,2.601l-2.111,6.396l1.267,4.086l-2.854,5.38
	l-0.792,1.405l0.705,1.295l2.65,0.681l3.275,2.564l1.46,4.744l0.855,0.434l8.223-0.382l8.061,0.795l6.76,1.53l0.267,0.353
	l5.813,3.829l4.26-0.013l3.944,2.058l2.279-1.2l5.665,0.78l4.989,3.399l3.108,3.772l0.898,0.123l2.648,2.763l1.443,0.514
	l1.238,2.001l-0.619-0.086l0.105,1.529l1.46,4.743l4.358,3.629l2.074,0.285l7.292,4.317l4.656,1.24l1.784,2.391l3.571-1.653
	l10.75,1.197l3.577,4.72l0.162-1.177l0.55,0.36l-0.712,0.816l2.537,7.92l-0.564,2.036l-1.776,1.9l0.302,2.155l2.663,0.366
	l3.274,2.564l1.331-0.731l0.286-2.074l-0.897-0.123l1.021-0.774l0.137,0.839l-0.261,0.059l-0.007,2.113l0.162-1.177l1.021-0.774
	l0.435,0.281l1.442-0.622l-0.162,1.177l1.443,0.515l-0.96-1.962l6.006,2.656l4.309,6.051l9.854,7.698l3.174,5.579l2.887,1.028
	l2.722,4.287l4.358,3.628l3.213,5.301l4.568,8.516l1.682,7.487l0.729,7.986l-1.896,2.768l1.386,3.219l-0.393,7.201l1.388-3.437
	l2.396,0.015l0.143,1.25l2.687,2.483l0.81,2.825l-0.124,0.897l-1.3,0.735l-1.139-5.015l-0.588-0.081l0.162-1.176l-1.362-1.103
	l-1.567,0.383l-0.445,1.169l2.314,0.604l1.893,3.888L292.535,668l127.207-0.806l-0.009,0.062l1.959-1.402l7.816,1.424l1.138-4.134
	l3.706-3.779l-0.575-4.527l0.561-2.005l-1.835-3.628l-7.929-1.754l-1.84-2.903l2.343-7.848l-0.54-1.115l0.122-2.034l-2.369-2.724
	l1.663-3.367l-1.084-2.894l4.899-0.303l3.135-5.814l3.165-2.592l-0.621-2.136l1.186-2.424l0.078-3.081l2.241-2.53l-1.177-6.345
	l0.579-2.602l1.115-1.455l-1.526-3.807l5.829-4.528l1.779-4.676l9.015-4.752l5.905-5.085l-2.282-4.731l-8.15-7.242l-2.06-0.852
	l0.161-4.835l-1.903-2.439l0.199-2.591l-3.119-8.505l-3.104-2.888l-0.273-2.593l-2.848-2.916l0.059-7.752L195.368,249.419
	l24.369-185.157L26.196,34.354L26.196,34.354z M244.502,584.792l-2.838,0.682l0.107-0.774L244.502,584.792L244.502,584.792z"/>
<g enable-background="new    ">
	<path fill="#3F3F3F" d="M511.179,251.418l49.409-4.804c2.973,16.585,9.007,28.766,18.1,36.542
		c9.093,7.779,21.359,11.667,36.8,11.667c16.354,0,28.677-3.458,36.971-10.379c8.292-6.919,12.438-15.012,12.438-24.276
		c0-5.946-1.745-11.007-5.232-15.183c-3.49-4.174-9.581-7.806-18.271-10.894c-5.948-2.059-19.501-5.718-40.659-10.98
		c-27.222-6.747-46.321-15.038-57.302-24.876c-15.44-13.837-23.16-30.709-23.16-50.61c0-12.808,3.63-24.79,10.895-35.941
		c7.262-11.151,17.727-19.644,31.395-25.477c13.666-5.833,30.165-8.75,49.495-8.75c31.567,0,55.328,6.921,71.283,20.759
		c15.955,13.84,24.332,32.312,25.134,55.414l-50.781,2.23c-2.175-12.923-6.836-22.217-13.982-27.878
		c-7.149-5.661-17.872-8.492-32.168-8.492c-14.754,0-26.308,3.032-34.654,9.093c-5.378,3.89-8.063,9.093-8.063,15.612
		c0,5.948,2.514,11.039,7.548,15.269c6.404,5.377,21.96,10.98,46.665,16.813c24.704,5.833,42.976,11.867,54.813,18.099
		c11.837,6.235,21.102,14.754,27.792,25.562c6.691,10.809,10.036,24.163,10.036,40.06c0,14.411-4.005,27.908-12.009,40.488
		c-8.007,12.583-19.33,21.933-33.969,28.05c-14.642,6.117-32.883,9.178-54.728,9.178c-31.798,0-56.216-7.348-73.256-22.045
		C524.673,300.972,514.495,279.554,511.179,251.418z"/>
	<path fill="#3F3F3F" d="M841.603,151.055v38.43h-32.939v73.428c0,14.869,0.314,23.533,0.944,25.991
		c0.627,2.461,2.059,4.49,4.289,6.09c2.229,1.603,4.945,2.402,8.148,2.402c4.461,0,10.921-1.544,19.387-4.632l4.117,37.4
		c-11.21,4.804-23.906,7.206-38.086,7.206c-8.693,0-16.529-1.458-23.504-4.375c-6.978-2.917-12.095-6.691-15.354-11.323
		c-3.26-4.632-5.52-10.894-6.777-18.786c-1.029-5.603-1.544-16.925-1.544-33.969v-79.432h-22.131v-38.43h22.131v-36.199
		l48.38-28.136v64.334H841.603z"/>
	<path fill="#3F3F3F" d="M911.085,206.641l-43.748-7.892c4.916-17.612,13.382-30.65,25.391-39.116
		c12.01-8.462,29.852-12.695,53.527-12.695c21.501,0,37.513,2.546,48.036,7.634c10.521,5.091,17.929,11.554,22.217,19.386
		c4.289,7.835,6.434,22.217,6.434,43.147l-0.515,56.271c0,16.014,0.772,27.822,2.316,35.427c1.544,7.607,4.431,15.757,8.664,24.447
		h-47.694c-1.26-3.201-2.804-7.948-4.632-14.239c-0.802-2.858-1.372-4.745-1.716-5.662c-8.234,8.007-17.043,14.012-26.42,18.014
		c-9.38,4.002-19.386,6.005-30.022,6.005c-18.76,0-33.54-5.088-44.349-15.269c-10.809-10.178-16.213-23.045-16.213-38.601
		c0-10.293,2.459-19.472,7.378-27.535c4.916-8.063,11.808-14.24,20.673-18.529c8.862-4.289,21.643-8.034,38.344-11.237
		c22.53-4.23,38.143-8.176,46.835-11.838v-4.804c0-9.264-2.289-15.869-6.862-19.815c-4.575-3.946-13.21-5.919-25.905-5.919
		c-8.578,0-15.269,1.689-20.072,5.061C917.947,192.259,914.058,198.178,911.085,206.641z M975.591,245.756
		c-6.176,2.059-15.955,4.52-29.336,7.377c-13.382,2.86-22.132,5.662-26.249,8.407c-6.291,4.46-9.436,10.122-9.436,16.984
		c0,6.75,2.515,12.583,7.549,17.499c5.031,4.919,11.436,7.377,19.214,7.377c8.691,0,16.984-2.857,24.877-8.578
		c5.833-4.346,9.663-9.664,11.494-15.955c1.257-4.118,1.887-11.95,1.887-23.504V245.756z"/>
	<path fill="#3F3F3F" d="M1154.013,151.055v38.43h-32.939v73.428c0,14.869,0.314,23.533,0.944,25.991
		c0.627,2.461,2.059,4.49,4.289,6.09c2.229,1.603,4.945,2.402,8.148,2.402c4.461,0,10.921-1.544,19.387-4.632l4.117,37.4
		c-11.21,4.804-23.906,7.206-38.086,7.206c-8.693,0-16.529-1.458-23.504-4.375c-6.978-2.917-12.095-6.691-15.354-11.323
		c-3.26-4.632-5.52-10.894-6.777-18.786c-1.029-5.603-1.544-16.925-1.544-33.969v-79.432h-22.131v-38.43h22.131v-36.199
		l48.38-28.136v64.334H1154.013z"/>
	<path fill="#3F3F3F" d="M1292.977,275.265l48.037,8.063c-6.177,17.614-15.929,31.025-29.251,40.23
		c-13.325,9.208-29.996,13.811-50.01,13.811c-31.683,0-55.13-10.35-70.34-31.053c-12.009-16.582-18.014-37.513-18.014-62.791
		c0-30.195,7.892-53.84,23.675-70.94c15.784-17.097,35.741-25.648,59.875-25.648c27.106,0,48.492,8.951,64.163,26.849
		c15.668,17.901,23.161,45.321,22.475,82.263h-120.778c0.343,14.299,4.23,25.42,11.666,33.369
		c7.434,7.951,16.697,11.923,27.793,11.923c7.549,0,13.896-2.059,19.043-6.176C1286.457,291.048,1290.345,284.417,1292.977,275.265z
		 M1295.722,226.542c-0.343-13.953-3.946-24.56-10.809-31.824c-6.862-7.262-15.212-10.894-25.048-10.894
		c-10.523,0-19.214,3.833-26.077,11.495c-6.862,7.664-10.237,18.073-10.122,31.224H1295.722z"/>
	<path fill="#3F3F3F" d="M1469.341,239.58c0-16.011,3.945-31.508,11.837-46.493c7.892-14.982,19.07-26.42,33.54-34.312
		c14.468-7.892,30.624-11.837,48.466-11.837c27.562,0,50.151,8.951,67.767,26.849c17.611,17.901,26.42,40.518,26.42,67.852
		c0,27.564-8.895,50.412-26.678,68.538c-17.786,18.129-40.175,27.192-67.166,27.192c-16.7,0-32.626-3.774-47.779-11.323
		c-15.156-7.548-26.678-18.614-34.569-33.197S1469.341,260.511,1469.341,239.58z M1518.75,242.154
		c0,18.073,4.289,31.91,12.866,41.518c8.578,9.607,19.156,14.411,31.739,14.411c12.58,0,23.131-4.804,31.652-14.411
		c8.52-9.607,12.781-23.56,12.781-41.861c0-17.842-4.262-31.567-12.781-41.174c-8.521-9.607-19.072-14.411-31.652-14.411
		c-12.583,0-23.161,4.804-31.739,14.411C1523.039,210.244,1518.75,224.083,1518.75,242.154z"/>
	<path fill="#3F3F3F" d="M1674.011,151.055h26.764v-13.725c0-15.325,1.63-26.763,4.89-34.312c3.26-7.548,9.264-13.695,18.014-18.442
		c8.749-4.745,19.815-7.12,33.196-7.12c13.726,0,27.163,2.059,40.317,6.176l-6.52,33.626c-7.664-1.829-15.041-2.745-22.132-2.745
		c-6.978,0-11.982,1.63-15.011,4.89c-3.032,3.259-4.547,9.521-4.547,18.786v12.867h36.027v37.915h-36.027v144.282h-48.208V188.97
		h-26.764V151.055z"/>
</g>
<g enable-background="new    ">
	<path fill="#3F3F3F" d="M684.969,592.136l49.238,15.612c-7.549,27.449-20.103,47.838-37.658,61.161
		c-17.558,13.325-39.831,19.986-66.822,19.986c-33.397,0-60.848-11.409-82.349-34.227c-21.504-22.817-32.253-54.012-32.253-93.586
		c0-41.86,10.808-74.371,32.425-97.531c21.616-23.161,50.036-34.741,85.265-34.741c30.766,0,55.757,9.093,74.972,27.278
		c11.436,10.752,20.014,26.192,25.734,46.321l-50.268,12.009c-2.975-13.038-9.178-23.332-18.614-30.881
		c-9.436-7.549-20.903-11.322-34.397-11.322c-18.644,0-33.771,6.69-45.377,20.072c-11.61,13.382-17.414,35.057-17.414,65.021
		c0,31.798,5.718,54.444,17.156,67.938c11.436,13.497,26.305,20.244,44.605,20.244c13.494,0,25.104-4.289,34.827-12.867
		C673.759,624.046,680.736,610.552,684.969,592.136z"/>
	<path fill="#3F3F3F" d="M813.468,557.995l-43.748-7.892c4.916-17.611,13.382-30.65,25.391-39.115
		c12.01-8.463,29.852-12.696,53.527-12.696c21.501,0,37.513,2.547,48.036,7.635c10.521,5.091,17.929,11.554,22.217,19.387
		c4.289,7.835,6.434,22.217,6.434,43.146l-0.515,56.272c0,16.014,0.772,27.822,2.316,35.427c1.544,7.607,4.431,15.757,8.664,24.447
		h-47.694c-1.26-3.2-2.804-7.948-4.632-14.239c-0.802-2.857-1.372-4.745-1.716-5.662c-8.234,8.008-17.043,14.012-26.42,18.015
		c-9.38,4.002-19.386,6.004-30.022,6.004c-18.76,0-33.54-5.088-44.349-15.269c-10.809-10.179-16.213-23.045-16.213-38.601
		c0-10.294,2.459-19.473,7.378-27.536c4.916-8.062,11.808-14.239,20.673-18.528c8.862-4.289,21.643-8.033,38.344-11.237
		c22.53-4.229,38.143-8.176,46.835-11.837v-4.804c0-9.265-2.289-15.869-6.862-19.815c-4.575-3.946-13.21-5.919-25.905-5.919
		c-8.578,0-15.269,1.688-20.072,5.062C820.33,543.613,816.44,549.532,813.468,557.995z M877.974,597.111
		c-6.176,2.059-15.955,4.52-29.336,7.377c-13.382,2.86-22.132,5.661-26.249,8.406c-6.291,4.461-9.436,10.122-9.436,16.984
		c0,6.75,2.515,12.583,7.549,17.499c5.031,4.919,11.436,7.377,19.214,7.377c8.691,0,16.984-2.857,24.877-8.578
		c5.833-4.345,9.663-9.663,11.494-15.955c1.257-4.117,1.887-11.95,1.887-23.503V597.111z"/>
	<path fill="#3F3F3F" d="M972.847,684.606V433.1h48.208v251.507H972.847z"/>
	<path fill="#3F3F3F" d="M1070.464,477.705V433.1h48.208v44.605H1070.464z M1070.464,684.606V502.41h48.208v182.196H1070.464z"/>
	<path fill="#3F3F3F" d="M1146.979,502.41h26.764v-13.725c0-15.325,1.63-26.764,4.89-34.312s9.264-13.695,18.014-18.442
		c8.749-4.745,19.815-7.12,33.196-7.12c13.726,0,27.163,2.059,40.317,6.177l-6.52,33.625c-7.664-1.828-15.041-2.745-22.132-2.745
		c-6.978,0-11.982,1.63-15.011,4.89c-3.032,3.26-4.547,9.521-4.547,18.786v12.867h36.027v37.914h-36.027v144.282h-48.208V540.324
		h-26.764V502.41z"/>
	<path fill="#3F3F3F" d="M1273.935,590.935c0-16.011,3.945-31.508,11.837-46.492c7.892-14.982,19.07-26.421,33.54-34.312
		c14.468-7.892,30.624-11.838,48.466-11.838c27.562,0,50.151,8.951,67.767,26.85c17.611,17.901,26.42,40.518,26.42,67.852
		c0,27.565-8.895,50.412-26.678,68.538c-17.786,18.13-40.175,27.192-67.166,27.192c-16.7,0-32.626-3.774-47.779-11.322
		c-15.156-7.549-26.678-18.614-34.569-33.197S1273.935,611.865,1273.935,590.935z M1323.344,593.508
		c0,18.073,4.289,31.91,12.866,41.518c8.578,9.607,19.156,14.411,31.739,14.411c12.58,0,23.131-4.804,31.652-14.411
		c8.52-9.607,12.781-23.56,12.781-41.86c0-17.842-4.262-31.567-12.781-41.175c-8.521-9.606-19.072-14.41-31.652-14.41
		c-12.583,0-23.161,4.804-31.739,14.41C1327.633,561.598,1323.344,575.438,1323.344,593.508z"/>
	<path fill="#3F3F3F" d="M1545.856,684.606h-48.209V502.41h44.777v25.905c7.661-12.237,14.554-20.301,20.673-24.189
		c6.117-3.888,13.065-5.834,20.845-5.834c10.979,0,21.558,3.032,31.738,9.093l-14.926,42.032
		c-8.122-5.259-15.671-7.892-22.646-7.892c-6.75,0-12.468,1.86-17.156,5.576c-4.69,3.718-8.379,10.438-11.065,20.158
		c-2.688,9.723-4.031,30.082-4.031,61.075V684.606z"/>
	<path fill="#3F3F3F" d="M1802.167,684.606h-48.208v-92.985c0-19.671-1.03-32.396-3.089-38.172
		c-2.059-5.774-5.404-10.265-10.036-13.468c-4.632-3.2-10.208-4.804-16.727-4.804c-8.351,0-15.843,2.289-22.475,6.862
		c-6.635,4.576-11.181,10.637-13.639,18.186c-2.461,7.549-3.688,21.504-3.688,41.86v82.521h-48.209V502.41h44.777v26.763
		c15.896-20.587,35.912-30.881,60.046-30.881c10.637,0,20.356,1.917,29.165,5.748c8.806,3.833,15.468,8.723,19.987,14.668
		c4.517,5.948,7.661,12.695,9.436,20.244c1.771,7.549,2.659,18.356,2.659,32.425V684.606z"/>
	<path fill="#3F3F3F" d="M1851.062,477.705V433.1h48.208v44.605H1851.062z M1851.062,684.606V502.41h48.208v182.196H1851.062z"/>
	<path fill="#3F3F3F" d="M1984.706,557.995l-43.748-7.892c4.916-17.611,13.382-30.65,25.391-39.115
		c12.01-8.463,29.852-12.696,53.527-12.696c21.501,0,37.513,2.547,48.036,7.635c10.521,5.091,17.929,11.554,22.217,19.387
		c4.289,7.835,6.434,22.217,6.434,43.146l-0.515,56.272c0,16.014,0.772,27.822,2.316,35.427c1.544,7.607,4.431,15.757,8.664,24.447
		h-47.694c-1.26-3.2-2.804-7.948-4.632-14.239c-0.802-2.857-1.372-4.745-1.716-5.662c-8.234,8.008-17.043,14.012-26.42,18.015
		c-9.38,4.002-19.386,6.004-30.022,6.004c-18.76,0-33.54-5.088-44.349-15.269c-10.809-10.179-16.213-23.045-16.213-38.601
		c0-10.294,2.459-19.473,7.378-27.536c4.916-8.062,11.808-14.239,20.673-18.528c8.862-4.289,21.643-8.033,38.344-11.237
		c22.53-4.229,38.143-8.176,46.835-11.837v-4.804c0-9.265-2.289-15.869-6.862-19.815c-4.575-3.946-13.21-5.919-25.905-5.919
		c-8.578,0-15.269,1.688-20.072,5.062C1991.568,543.613,1987.679,549.532,1984.706,557.995z M2049.212,597.111
		c-6.176,2.059-15.955,4.52-29.336,7.377c-13.382,2.86-22.132,5.661-26.249,8.406c-6.291,4.461-9.436,10.122-9.436,16.984
		c0,6.75,2.515,12.583,7.549,17.499c5.031,4.919,11.436,7.377,19.214,7.377c8.691,0,16.984-2.857,24.877-8.578
		c5.833-4.345,9.663-9.663,11.494-15.955c1.257-4.117,1.887-11.95,1.887-23.503V597.111z"/>
</g>
</svg>
