<?xml version="1.0" encoding="UTF-8" standalone="no"?>
<!-- Created with Inkscape (http://www.inkscape.org/) -->

<svg
   xmlns:dc="http://purl.org/dc/elements/1.1/"
   xmlns:cc="http://creativecommons.org/ns#"
   xmlns:rdf="http://www.w3.org/1999/02/22-rdf-syntax-ns#"
   xmlns:svg="http://www.w3.org/2000/svg"
   xmlns="http://www.w3.org/2000/svg"
   xmlns:xlink="http://www.w3.org/1999/xlink"
   xmlns:sodipodi="http://sodipodi.sourceforge.net/DTD/sodipodi-0.dtd"
   xmlns:inkscape="http://www.inkscape.org/namespaces/inkscape"
   width="280.40018"
   height="96.021599"
   id="svg2"
   version="1.1"
   inkscape:version="0.48.2 r9819"
   sodipodi:docname="google-logo-grey.svg"
   style="display:inline">
  <defs
     id="defs4">
    <linearGradient
       id="linearGradient7673">
      <stop
         style="stop-color:#ffffff;stop-opacity:1"
         offset="0"
         id="stop7675" />
      <stop
         style="stop-color:#ffffff;stop-opacity:1;"
         offset="1"
         id="stop7677" />
    </linearGradient>
    <linearGradient
       id="linearGradient3674">
      <stop
         style="stop-color:#ffffff;stop-opacity:1;"
         offset="0"
         id="stop3676" />
      <stop
         style="stop-color:#000000;stop-opacity:0;"
         offset="1"
         id="stop3678" />
    </linearGradient>
    <linearGradient
       id="linearGradient3645">
      <stop
         style="stop-color:#ffffff;stop-opacity:1;"
         offset="0"
         id="stop3647" />
      <stop
         style="stop-color:#000000;stop-opacity:0.94736842"
         offset="1"
         id="stop3649" />
    </linearGradient>
    <inkscape:perspective
       sodipodi:type="inkscape:persp3d"
       inkscape:vp_x="0 : 526.18109 : 1"
       inkscape:vp_y="0 : 1000 : 0"
       inkscape:vp_z="744.09448 : 526.18109 : 1"
       inkscape:persp3d-origin="372.04724 : 350.78739 : 1"
       id="perspective10" />
    <inkscape:perspective
       id="perspective2838"
       inkscape:persp3d-origin="0.5 : 0.33333333 : 1"
       inkscape:vp_z="1 : 0.5 : 1"
       inkscape:vp_y="0 : 1000 : 0"
       inkscape:vp_x="0 : 0.5 : 1"
       sodipodi:type="inkscape:persp3d" />
    <inkscape:perspective
       id="perspective2852"
       inkscape:persp3d-origin="0.5 : 0.33333333 : 1"
       inkscape:vp_z="1 : 0.5 : 1"
       inkscape:vp_y="0 : 1000 : 0"
       inkscape:vp_x="0 : 0.5 : 1"
       sodipodi:type="inkscape:persp3d" />
    <inkscape:perspective
       id="perspective7795"
       inkscape:persp3d-origin="0.5 : 0.33333333 : 1"
       inkscape:vp_z="1 : 0.5 : 1"
       inkscape:vp_y="0 : 1000 : 0"
       inkscape:vp_x="0 : 0.5 : 1"
       sodipodi:type="inkscape:persp3d" />
    <inkscape:perspective
       id="perspective7817"
       inkscape:persp3d-origin="0.5 : 0.33333333 : 1"
       inkscape:vp_z="1 : 0.5 : 1"
       inkscape:vp_y="0 : 1000 : 0"
       inkscape:vp_x="0 : 0.5 : 1"
       sodipodi:type="inkscape:persp3d" />
    <inkscape:perspective
       id="perspective8022"
       inkscape:persp3d-origin="0.5 : 0.33333333 : 1"
       inkscape:vp_z="1 : 0.5 : 1"
       inkscape:vp_y="0 : 1000 : 0"
       inkscape:vp_x="0 : 0.5 : 1"
       sodipodi:type="inkscape:persp3d" />
    <inkscape:perspective
       id="perspective8467"
       inkscape:persp3d-origin="0.5 : 0.33333333 : 1"
       inkscape:vp_z="1 : 0.5 : 1"
       inkscape:vp_y="0 : 1000 : 0"
       inkscape:vp_x="0 : 0.5 : 1"
       sodipodi:type="inkscape:persp3d" />
    <inkscape:perspective
       id="perspective8736"
       inkscape:persp3d-origin="0.5 : 0.33333333 : 1"
       inkscape:vp_z="1 : 0.5 : 1"
       inkscape:vp_y="0 : 1000 : 0"
       inkscape:vp_x="0 : 0.5 : 1"
       sodipodi:type="inkscape:persp3d" />
    <filter
       color-interpolation-filters="sRGB"
       inkscape:collect="always"
       id="filter7170-1"
       x="-0.11709681"
       width="1.2341936"
       y="-0.12305081"
       height="1.2461016">
      <feGaussianBlur
         inkscape:collect="always"
         stdDeviation="1.3443162"
         id="feGaussianBlur7172-7" />
    </filter>
    <filter
       color-interpolation-filters="sRGB"
       inkscape:collect="always"
       id="filter8724-4"
       x="-0.20125298"
       width="1.402506"
       y="-0.41801816"
       height="1.8360363">
      <feGaussianBlur
         inkscape:collect="always"
         stdDeviation="3.0184953"
         id="feGaussianBlur8726-0" />
    </filter>
    <filter
       color-interpolation-filters="sRGB"
       inkscape:collect="always"
       id="filter8419-9"
       x="-0.13349849"
       width="1.266997"
       y="-0.344657"
       height="1.689314">
      <feGaussianBlur
         inkscape:collect="always"
         stdDeviation="5.2823986"
         id="feGaussianBlur8421-4" />
    </filter>
    <filter
       color-interpolation-filters="sRGB"
       inkscape:collect="always"
       id="filter8606-8"
       x="-0.19642615"
       width="1.3928523"
       y="-0.26721096"
       height="1.5344219">
      <feGaussianBlur
         inkscape:collect="always"
         stdDeviation="6.9154842"
         id="feGaussianBlur8608-8" />
    </filter>
    <filter
       color-interpolation-filters="sRGB"
       inkscape:collect="always"
       id="filter8544-2"
       x="-0.3079837"
       width="1.6159674"
       y="-0.53366125"
       height="2.0673225">
      <feGaussianBlur
         inkscape:collect="always"
         stdDeviation="6.4971368"
         id="feGaussianBlur8546-4" />
    </filter>
    <filter
       inkscape:collect="always"
       id="filter8359-5"
       x="-0.29928169"
       width="1.5985634"
       y="-0.44108593"
       height="1.8821719"
       color-interpolation-filters="sRGB">
      <feGaussianBlur
         inkscape:collect="always"
         stdDeviation="3.1626648"
         id="feGaussianBlur8361-5" />
    </filter>
    <filter
       color-interpolation-filters="sRGB"
       inkscape:collect="always"
       id="filter8552-1"
       x="-0.17017458"
       width="1.3403492"
       y="-0.95076323"
       height="2.9015265">
      <feGaussianBlur
         inkscape:collect="always"
         stdDeviation="3.8238634"
         id="feGaussianBlur8554-7" />
    </filter>
    <filter
       inkscape:collect="always"
       id="filter8295-1"
       x="-0.81795937"
       width="2.6359189"
       y="-0.087746292"
       height="1.1754926"
       color-interpolation-filters="sRGB">
      <feGaussianBlur
         inkscape:collect="always"
         stdDeviation="6.4408285"
         id="feGaussianBlur8297-1" />
    </filter>
    <filter
       inkscape:collect="always"
       id="filter8275-5"
       x="-0.31412879"
       width="1.6282576"
       y="-0.53641981"
       height="2.0728397"
       color-interpolation-filters="sRGB">
      <feGaussianBlur
         inkscape:collect="always"
         stdDeviation="4.4114508"
         id="feGaussianBlur8277-2" />
    </filter>
    <filter
       color-interpolation-filters="sRGB"
       inkscape:collect="always"
       id="filter8590-7"
       x="-0.16222404"
       width="1.3244481"
       y="-0.31908804"
       height="1.6381761">
      <feGaussianBlur
         inkscape:collect="always"
         stdDeviation="7.9782798"
         id="feGaussianBlur8592-6" />
    </filter>
    <filter
       inkscape:collect="always"
       id="filter8251-1"
       x="-0.085549749"
       width="1.1710995"
       y="-0.40912703"
       height="1.818254"
       color-interpolation-filters="sRGB">
      <feGaussianBlur
         inkscape:collect="always"
         stdDeviation="2.7105059"
         id="feGaussianBlur8253-4" />
    </filter>
    <filter
       color-interpolation-filters="sRGB"
       inkscape:collect="always"
       id="filter8594-2"
       x="-0.23080222"
       width="1.4616044"
       y="-0.25744399"
       height="1.514888">
      <feGaussianBlur
         inkscape:collect="always"
         stdDeviation="5.3313618"
         id="feGaussianBlur8596-3" />
    </filter>
    <filter
       inkscape:collect="always"
       id="filter8219-2"
       x="-0.60103309"
       width="2.2020662"
       y="-0.65816259"
       height="2.3163252"
       color-interpolation-filters="sRGB">
      <feGaussianBlur
         inkscape:collect="always"
         stdDeviation="8.0029751"
         id="feGaussianBlur8221-2" />
    </filter>
    <filter
       inkscape:collect="always"
       id="filter8197-1"
       x="-0.57794684"
       width="2.1558938"
       y="-0.25785139"
       height="1.5157028"
       color-interpolation-filters="sRGB">
      <feGaussianBlur
         inkscape:collect="always"
         stdDeviation="4.9912344"
         id="feGaussianBlur8199-6" />
    </filter>
    <filter
       inkscape:collect="always"
       id="filter8213-8"
       x="-0.57907385"
       width="2.1581476"
       y="-0.72858703"
       height="2.4571741"
       color-interpolation-filters="sRGB">
      <feGaussianBlur
         inkscape:collect="always"
         stdDeviation="7.327109"
         id="feGaussianBlur8215-5" />
    </filter>
    <filter
       inkscape:collect="always"
       id="filter8173-7"
       x="-0.31227943"
       width="1.6245589"
       y="-0.38608703"
       height="1.7721741"
       color-interpolation-filters="sRGB">
      <feGaussianBlur
         inkscape:collect="always"
         stdDeviation="4.2175917"
         id="feGaussianBlur8175-6" />
    </filter>
    <filter
       inkscape:collect="always"
       id="filter8149-1"
       x="-0.138845"
       width="1.2776901"
       y="-0.23834647"
       height="1.4766929"
       color-interpolation-filters="sRGB">
      <feGaussianBlur
         inkscape:collect="always"
         stdDeviation="5.701753"
         id="feGaussianBlur8151-8" />
    </filter>
    <filter
       color-interpolation-filters="sRGB"
       inkscape:collect="always"
       id="filter8010-9-9"
       x="-0.6412558"
       width="2.2825115"
       y="-0.1815796"
       height="1.3631592">
      <feGaussianBlur
         inkscape:collect="always"
         stdDeviation="4.3412634"
         id="feGaussianBlur8012-0-2" />
    </filter>
    <filter
       inkscape:collect="always"
       id="filter8010-7"
       x="-0.6412558"
       width="2.2825115"
       y="-0.1815796"
       height="1.3631592"
       color-interpolation-filters="sRGB">
      <feGaussianBlur
         inkscape:collect="always"
         stdDeviation="4.3412634"
         id="feGaussianBlur8012-9" />
    </filter>
    <filter
       inkscape:collect="always"
       id="filter8118-5"
       x="-0.17181315"
       width="1.3436263"
       y="-0.23392025"
       height="1.4678406"
       color-interpolation-filters="sRGB">
      <feGaussianBlur
         inkscape:collect="always"
         stdDeviation="8.7480268"
         id="feGaussianBlur8120-4" />
    </filter>
    <filter
       color-interpolation-filters="sRGB"
       inkscape:collect="always"
       id="filter7768-1-3"
       x="-0.06769371"
       width="1.1353874"
       y="-0.16499165"
       height="1.3299834">
      <feGaussianBlur
         inkscape:collect="always"
         stdDeviation="3.2367213"
         id="feGaussianBlur7770-6-1" />
    </filter>
    <filter
       inkscape:collect="always"
       id="filter8110-2"
       x="-0.19463554"
       width="1.3892711"
       y="-0.26499254"
       height="1.5299851"
       color-interpolation-filters="sRGB">
      <feGaussianBlur
         inkscape:collect="always"
         stdDeviation="9.910051"
         id="feGaussianBlur8112-3" />
    </filter>
    <filter
       inkscape:collect="always"
       id="filter7768-3"
       x="-0.06769371"
       width="1.1353874"
       y="-0.16499165"
       height="1.3299834"
       color-interpolation-filters="sRGB">
      <feGaussianBlur
         inkscape:collect="always"
         stdDeviation="3.2367213"
         id="feGaussianBlur7770-4" />
    </filter>
    <linearGradient
       inkscape:collect="always"
       xlink:href="#linearGradient7721-1"
       id="linearGradient3910-1"
       gradientUnits="userSpaceOnUse"
       gradientTransform="translate(0.81967213,0)"
       x1="165.77869"
       y1="530.64087"
       x2="165.77869"
       y2="504.18362" />
    <linearGradient
       inkscape:collect="always"
       id="linearGradient7721-1">
      <stop
         style="stop-color:#000000;stop-opacity:1;"
         offset="0"
         id="stop7723-3" />
      <stop
         style="stop-color:#000000;stop-opacity:0;"
         offset="1"
         id="stop7725-8" />
    </linearGradient>
    <filter
       inkscape:collect="always"
       id="filter7729-7"
       x="-0.54470259"
       width="2.0894051"
       y="-0.21243395"
       height="1.4248679"
       color-interpolation-filters="sRGB">
      <feGaussianBlur
         inkscape:collect="always"
         stdDeviation="3.6276283"
         id="feGaussianBlur7731-4" />
    </filter>
    <linearGradient
       inkscape:collect="always"
       xlink:href="#linearGradient7673-7"
       id="linearGradient3912-2"
       gradientUnits="userSpaceOnUse"
       x1="45.22744"
       y1="538.96661"
       x2="124.44469"
       y2="559.14996" />
    <linearGradient
       id="linearGradient7673-7">
      <stop
         style="stop-color:#ffffff;stop-opacity:1"
         offset="0"
         id="stop7675-7" />
      <stop
         style="stop-color:#ffffff;stop-opacity:1;"
         offset="1"
         id="stop7677-9" />
    </linearGradient>
    <filter
       inkscape:collect="always"
       id="filter7669-3"
       x="-0.072500229"
       width="1.1450005"
       y="-0.21161968"
       height="1.4232394"
       color-interpolation-filters="sRGB">
      <feGaussianBlur
         inkscape:collect="always"
         stdDeviation="2.5008616"
         id="feGaussianBlur7671-1" />
    </filter>
    <filter
       color-interpolation-filters="sRGB"
       inkscape:collect="always"
       id="filter8564-9"
       x="-0.09913969"
       width="1.1982794"
       y="-0.14839835"
       height="1.2967967">
      <feGaussianBlur
         inkscape:collect="always"
         stdDeviation="7.1837934"
         id="feGaussianBlur8566-8" />
    </filter>
    <linearGradient
       inkscape:collect="always"
       xlink:href="#linearGradient3645-5"
       id="linearGradient3914-6"
       gradientUnits="userSpaceOnUse"
       x1="154.81558"
       y1="495.32358"
       x2="155.53278"
       y2="513.04901" />
    <linearGradient
       id="linearGradient3645-5">
      <stop
         style="stop-color:#ffffff;stop-opacity:1;"
         offset="0"
         id="stop3647-0" />
      <stop
         style="stop-color:#000000;stop-opacity:0.94736842"
         offset="1"
         id="stop3649-2" />
    </linearGradient>
    <filter
       inkscape:collect="always"
       id="filter3716-8"
       x="-0.33544657"
       width="1.6708931"
       y="-1.1634955"
       height="3.3269911"
       color-interpolation-filters="sRGB">
      <feGaussianBlur
         inkscape:collect="always"
         stdDeviation="8.0768377"
         id="feGaussianBlur3718-6" />
    </filter>
    <filter
       color-interpolation-filters="sRGB"
       inkscape:collect="always"
       id="filter8586-0"
       x="-0.4648405"
       width="1.9296809"
       y="-0.56349128"
       height="2.1269825">
      <feGaussianBlur
         inkscape:collect="always"
         stdDeviation="13.642596"
         id="feGaussianBlur8588-2" />
    </filter>
    <filter
       color-interpolation-filters="sRGB"
       inkscape:collect="always"
       id="filter8702-4">
      <feGaussianBlur
         inkscape:collect="always"
         stdDeviation="0.80077951"
         id="feGaussianBlur8704-8" />
    </filter>
    <filter
       color-interpolation-filters="sRGB"
       inkscape:collect="always"
       id="filter8698-6">
      <feGaussianBlur
         inkscape:collect="always"
         stdDeviation="0.80077951"
         id="feGaussianBlur8700-5" />
    </filter>
    <filter
       color-interpolation-filters="sRGB"
       inkscape:collect="always"
       id="filter8694-0">
      <feGaussianBlur
         inkscape:collect="always"
         stdDeviation="0.80077951"
         id="feGaussianBlur8696-9" />
    </filter>
    <filter
       color-interpolation-filters="sRGB"
       inkscape:collect="always"
       id="filter8690-0">
      <feGaussianBlur
         inkscape:collect="always"
         stdDeviation="0.80077951"
         id="feGaussianBlur8692-0" />
    </filter>
    <filter
       color-interpolation-filters="sRGB"
       inkscape:collect="always"
       id="filter8686-6">
      <feGaussianBlur
         inkscape:collect="always"
         stdDeviation="0.80077951"
         id="feGaussianBlur8688-1" />
    </filter>
    <filter
       color-interpolation-filters="sRGB"
       inkscape:collect="always"
       id="filter8682-3">
      <feGaussianBlur
         inkscape:collect="always"
         stdDeviation="0.80077951"
         id="feGaussianBlur8684-8" />
    </filter>
  </defs>
  <sodipodi:namedview
     id="base"
     pagecolor="#ffffff"
     bordercolor="#666666"
     borderopacity="1.0"
     inkscape:pageopacity="0.0"
     inkscape:pageshadow="2"
     inkscape:zoom="1.4142136"
     inkscape:cx="279.93177"
     inkscape:cy="29.888482"
     inkscape:document-units="px"
     inkscape:current-layer="layer3"
     showgrid="false"
     inkscape:window-width="1366"
     inkscape:window-height="720"
     inkscape:window-x="0"
     inkscape:window-y="0"
     inkscape:window-maximized="1"
     fit-margin-top="0"
     fit-margin-left="0"
     fit-margin-right="0"
     fit-margin-bottom="0" />
  <metadata
     id="metadata7">
    <rdf:RDF>
      <cc:Work
         rdf:about="">
        <dc:format>image/svg+xml</dc:format>
        <dc:type
           rdf:resource="http://purl.org/dc/dcmitype/StillImage" />
        <dc:title />
      </cc:Work>
    </rdf:RDF>
  </metadata>
  <g
     inkscape:groupmode="layer"
     id="layer11"
     inkscape:label="Shadow"
     style="display:inline"
     transform="translate(-0.13381534,-192.76509)" />
  <g
     inkscape:label="Basic"
     inkscape:groupmode="layer"
     id="layer1"
     style="display:inline"
     transform="translate(22.674418,-536.78239)" />
  <g
     inkscape:groupmode="layer"
     id="layer3"
     inkscape:label="Secondary"
     style="display:inline"
     transform="translate(22.674418,-536.78239)">
    <g
       id="g3122"
       transform="translate(-12.363962,15.455844)"
       style="fill:#3f3f3f;fill-opacity:0.94117647">
      <path
         transform="matrix(0.35,0,0,0.35,-14.19129,515.9281)"
         inkscape:connector-curvature="0"
         sodipodi:nodetypes="csssssssssssssssssccccccsssssssssssccc"
         id="path3640-5"
         d="m 197.166,44.560713 c 0.68663,-1.28993 -19.59859,-14.67911 -47.61981,-19.47704 -24.54677,-4.20302 -55.226311,-4.89691 -81.376096,8.92376 -6.544437,3.45886 -11.469305,6.78158 -16.020554,10.2299 -12.399978,9.39505 -18.765081,18.62039 -23.902486,25.93293 -5.448467,7.7553 -9.553663,19.40839 -11.255323,24.70957 -2.074022,6.461197 -2.490914,12.686277 -3.432293,19.353017 -0.612967,4.34097 -0.495379,9.03629 -0.270739,13.93744 0.503401,10.98309 2.885474,22.9542 8.108439,33.93548 3.936231,8.27593 9.076707,16.03972 14.040801,23.08827 8.117077,11.52549 21.450409,18.9793 29.248548,22.99373 6.119077,3.15006 13.710711,6.56377 26.642155,8.69193 14.666848,2.41377 36.305618,2.36091 70.952758,-3.0595 9.58734,-1.49991 20.07835,-4.64972 31.81082,-7.06686 0.97585,-0.20105 1.58062,-0.51983 2.3551,-0.72125 0.72,-0.18726 1.36075,-0.0733 1.33543,-0.60327 -0.73358,-15.35438 -0.46645,-32.55765 -0.15874,-40.28243 0.0468,-1.17508 0.3287,-4.81031 0.34184,-6.34764 0.0117,-1.37154 0.72733,-1.20703 1.45425,-1.8405 l 7.17213,-7.06967 -56.14755,-0.81967 -19.67213,11.06558 39.03689,-1.63935 0,43.34016 c 0,0 -15.8357,6.60014 -36.98551,6.14758 -15.55991,-0.33295 -34.273399,-3.9239 -52.358754,-17.52052 C 52.082402,169.1241 42.12854,139.57325 41.965091,118.23674 c -0.08233,-10.74741 -0.364852,-18.9713 0.48779,-22.446527 0.751001,-3.06096 1.960559,-10.49547 5.201832,-18.53474 4.395588,-10.9023 11.8329,-22.24825 25.529645,-31.57686 8.4002,-5.72123 19.692554,-11.02765 32.998032,-12.18348 15.30977,-1.32994 26.12902,0.39919 35.1728,3.91282 22.30147,8.66444 26.7675,15.94297 29.99114,18.47447 0.15872,0.12464 0.87662,0.65627 0.61368,1.03683 -0.31511,0.45606 -0.35409,0.95639 -0.50504,1.22925 -1.41879,2.56449 -5.43651,9.26057 -5.43651,9.26057 l 8.50409,-0.92214 22.64345,-21.92622 z"
         style="fill:#3f3f3f;fill-opacity:0.94117647;stroke:#ff00ff;stroke-width:0.20000000000000001;stroke-linecap:butt;stroke-linejoin:miter;stroke-miterlimit:4;stroke-opacity:1;stroke-dasharray:none;display:inline;filter:url(#filter8682-3)" />
      <path
         transform="matrix(0.35,0,0,0.35,-14.19129,515.9281)"
         inkscape:connector-curvature="0"
         sodipodi:nodetypes="ccscssccssscc"
         id="path7733-2"
         d="m 282.11784,82.744633 c -3.16029,0.082 -5.03125,0.34375 -5.03125,0.34375 2.63909,-0.60346 -64.26562,7.42653 -57.78125,73.343757 5.59488,56.87505 68.85963,54.4083 68.85963,54.4083 14.82862,0.70218 70.8295,-14.69707 61.45287,-73.6583 -3.00231,-18.87886 -11.25172,-31.41279 -20.75,-39.531257 -16.27153,-13.90776 -37.26912,-15.15217 -46.75,-14.90625 z m -3.40625,8.9375 c 12.80581,0.0329 34.82143,6.10618 41.8125,45.093757 9.8232,54.7817 -15.17814,59.77513 -20.90625,62.6875 -7.60839,3.86837 -41.87916,7.3728 -54.09375,-48.75 -12.04844,-55.359387 25.52756,-58.020017 23.375,-57.781257 0,0 3.99168,-1.26497 9.8125,-1.25 z"
         style="fill:#3f3f3f;fill-opacity:0.94117647;stroke:none;display:inline;filter:url(#filter8686-6)" />
      <path
         transform="matrix(0.35,0,0,0.35,-14.19129,515.9281)"
         inkscape:connector-curvature="0"
         sodipodi:nodetypes="ccscssccssscc"
         id="path7733-8-1"
         d="m 430.3517,81.392243 c -3.16029,0.082 -5.03125,0.34375 -5.03125,0.34375 2.63909,-0.60346 -64.26562,7.42653 -57.78125,73.343757 5.59488,56.87505 68.85963,54.4083 68.85963,54.4083 14.82862,0.70218 70.82951,-14.69707 61.45288,-73.6583 -3.00231,-18.87886 -11.25172,-31.41279 -20.75,-39.531257 -16.27154,-13.90776 -37.26913,-15.15217 -46.75001,-14.90625 z m -3.40625,8.9375 c 12.80581,0.0329 34.82143,6.10618 41.81251,45.093757 9.8232,54.7817 -15.17815,59.77513 -20.90626,62.6875 -7.60839,3.86837 -41.87916,7.3728 -54.09375,-48.75 -12.04844,-55.359387 25.52756,-58.020017 23.375,-57.781257 0,0 3.99168,-1.26497 9.8125,-1.25 z"
         style="fill:#3f3f3f;fill-opacity:0.94117647;stroke:none;display:inline;filter:url(#filter8690-0)" />
      <path
         transform="matrix(0.35,0,0,0.35,-14.19129,515.9281)"
         inkscape:connector-curvature="0"
         sodipodi:nodetypes="csscscscscsssssssssssccccccscscccsssssssc"
         id="path8122-4"
         d="m 572.96159,85.869633 c -2.39049,-8.9e-4 -7.99974,0.13398 -14.6875,1.34375 -15.80704,2.8594 -37.66017,13.295027 -43.84375,35.031257 -9.56333,33.61656 15.0625,46.96875 15.0625,46.96875 0,0 8.62565,5.0683 12.1875,6.0625 10.7047,2.98797 22.09375,1.59375 22.09375,1.59375 0,0 -4.54113,15.03534 4.5625,25.65625 2.17348,2.53573 0.59375,2.625 0.59375,2.625 0,0 -39.78814,-1.0273 -58.625,18.96875 -18.83686,19.99605 -8.625,38.40625 -8.625,38.40625 0,0 9.87005,24.0649 52.46875,25.28125 42.78799,1.22176 69.25119,-24.12098 71.5625,-43.25 1.16176,-9.61504 -0.15199,-18.62246 -4.96875,-26.5 -4.68484,-7.66179 -12.73495,-14.25758 -20.59375,-20.6875 -4.88312,-3.99529 -8.27968,-6.04648 -10.46875,-8.34375 -2.06806,-2.17028 -2.41695,-4.96545 -2.34375,-7.0625 0.10223,-2.92861 1.64529,-6.52013 6.78125,-12.46875 9.36966,-10.85221 11.74513,-9.50129 17.40625,-17.625 1.69717,-2.43544 2.94559,-5.98852 4.6875,-11.28125 1.04942,-3.18863 0.87493,-6.48902 0.875,-9.5625 1.6e-4,-6.64497 -1.5956,-12.97529 -4.25,-18.3125 -4.93287,-9.91855 -13.40034,-16.357247 -13.5625,-16.843757 l 14.84375,0 16.8125,-9.84375 -56.71875,-0.15625 c 0,0 -0.45317,3e-4 -1.25,0 z m -12.1875,9.21875 c 8.65148,0.0594 21.64918,4.541287 29.4375,27.906257 13.36498,40.09498 -14.625,46.21875 -14.625,46.21875 0,0 -32.07301,4.93896 -37.96875,-30.71875 -6.00583,-36.32354 8.62087,-38.28845 14.34375,-41.875007 0,0 3.62161,-1.56691 8.8125,-1.53125 z m 17.71875,118.125007 c 0,0 25.53601,15.65215 27.9375,27.125 2.69061,12.85408 2.8717,22.21612 -16.625,32.46875 -5.75553,3.02663 -15.85735,3.37912 -22.21875,3.40625 -15.63565,0.0667 -27.44523,-5.95182 -33.28125,-8.96875 -3.03295,-1.56789 -19.87818,-20.48428 -7.40625,-37.40625 3.1372,-4.25656 6.61353,-6.14366 9.84375,-8.3125 6.87438,-4.61559 13.62228,-6.76556 26.34375,-7.875 4.23123,-0.36901 9.86959,-0.0583 15.40625,-0.4375 z"
         style="fill:#3f3f3f;fill-opacity:0.94117647;stroke:none;display:inline;filter:url(#filter8694-0)" />
      <path
         transform="matrix(0.35,0,0,0.35,-14.19129,515.9281)"
         inkscape:connector-curvature="0"
         sodipodi:nodetypes="cccscsccccscc"
         id="path8279-8"
         d="m 628.01613,27.005173 19.93485,-9.65916 37.81455,0.20552 c 0,0 -10.07018,4.93233 -10.89223,12.53634 -0.82206,7.60402 0,156.807097 0,156.807097 0.21047,3.90476 -1.52321,8.52882 9.04261,9.55639 13.19299,1.28307 15.41354,1.54136 15.41354,1.54136 l -9.24813,6.98747 -49.32333,-0.41103 5.34336,-5.75439 c 0,0 2.8772,-2.26065 2.67168,-11.71429 -0.20551,-9.45363 -0.30827,-159.992557 -0.30827,-159.992557 l -20.44863,-0.10275 z"
         style="fill:#3f3f3f;fill-opacity:0.94117647;stroke:none;display:inline;filter:url(#filter8698-6)" />
      <path
         transform="matrix(0.35,0,0,0.35,-14.19129,515.9281)"
         inkscape:connector-curvature="0"
         sodipodi:nodetypes="cssssscscccssccssscsscssc"
         id="path8363-6"
         d="m 767.92414,82.263742 c -0.94278,0.0042 -4.68824,-0.205354 -5.70828,-0.126889 -36.02015,2.770781 -52.64594,23.172697 -58.1875,41.812507 -5.54156,18.6398 -1.02732,45.84682 6.78125,57.9375 7.80856,12.09068 24.18042,27.18372 50.125,27.6875 25.94459,0.50378 39.82374,-11.85501 48.375,-20.40625 0.56675,-0.56675 1,-1.75 1,-1.75 0,0 -16.35916,9.24552 -33,9.0625 -18.01841,-0.19817 -46.18206,-17.6872 -53.125,-54.40625 6.7694,-0.53539 12.43719,-0.88303 19.875,-0.75 l 63.25,-25.9375 c 0,0 -1.53234,-8.23614 -7.9375,-16.34376 -4.00236,-5.06617 -10.52043,-9.925845 -17.875,-13.187497 -4.90146,-2.173733 -7.22539,-2.36162 -13.57297,-3.591861 z m -15.61453,8.841861 c 0.83872,-0.01717 1.66434,0.0062 2.46875,0.03125 4.98585,0.15552 9.108,1.170025 12.78125,3.53125 2.46043,1.581603 4.44501,3.911957 7.375,6.468747 5.66485,4.94331 5.53125,11.34376 5.53125,11.34376 -0.10026,1.44571 1.18943,3.34042 -2.0625,5.34375 -8.23072,5.07044 -25.68259,11.75648 -40.25,17.75 -4.82533,1.98531 -9.90029,3.67147 -13.46875,5.5 0,0 -2.9721,-16.99767 2,-31.03125 2.65726,-7.50003 8.3786,-13.990358 16.25,-16.968757 4.04709,-1.531347 6.85883,-1.917253 9.375,-1.96875 z"
         style="fill:#3f3f3f;fill-opacity:0.94117647;stroke:none;display:inline;filter:url(#filter8702-4)" />
    </g>
  </g>
</svg>
