<?xml version="1.0" encoding="UTF-8" standalone="no"?>
<!-- Generator: Adobe Illustrator 12.0.1, SVG Export Plug-In . SVG Version: 6.00 Build 51448)  -->

<svg
   xmlns:dc="http://purl.org/dc/elements/1.1/"
   xmlns:cc="http://creativecommons.org/ns#"
   xmlns:rdf="http://www.w3.org/1999/02/22-rdf-syntax-ns#"
   xmlns:svg="http://www.w3.org/2000/svg"
   xmlns="http://www.w3.org/2000/svg"
   xmlns:sodipodi="http://sodipodi.sourceforge.net/DTD/sodipodi-0.dtd"
   xmlns:inkscape="http://www.inkscape.org/namespaces/inkscape"
   version="1.1"
   width="520"
   height="120.4"
   viewBox="0 0 519.99999 120.4"
   style="overflow:visible"
   xml:space="preserve"
   id="svg2"
   inkscape:version="0.48.2 r9819"
   sodipodi:docname="logo-grey-us-dot.svg"
   inkscape:export-filename="/Users/craig/Dropbox/ITS/go-responsive/images/logo-grey-us-dot.png"
   inkscape:export-xdpi="29.900331"
   inkscape:export-ydpi="29.900331"><metadata
   id="metadata223"><rdf:RDF><cc:Work
       rdf:about=""><dc:format>image/svg+xml</dc:format><dc:type
         rdf:resource="http://purl.org/dc/dcmitype/StillImage" /><dc:title></dc:title></cc:Work></rdf:RDF></metadata><defs
   id="defs221">
	

		
		
		
		
		
		
	
			
			
		</defs><sodipodi:namedview
   pagecolor="#ffffff"
   bordercolor="#666666"
   borderopacity="1"
   objecttolerance="10"
   gridtolerance="10"
   guidetolerance="10"
   inkscape:pageopacity="0"
   inkscape:pageshadow="2"
   inkscape:window-width="1366"
   inkscape:window-height="721"
   id="namedview219"
   showgrid="false"
   inkscape:zoom="1.3871754"
   inkscape:cx="255.85137"
   inkscape:cy="63.704261"
   inkscape:window-x="0"
   inkscape:window-y="0"
   inkscape:window-maximized="0"
   inkscape:current-layer="svg2"
   fit-margin-top="0"
   fit-margin-left="0"
   fit-margin-right="0"
   fit-margin-bottom="0" />
<g
   id="Layer_1"
   transform="translate(0,0.04999768)">
</g>
<g
   id="g4242"
   transform="translate(0,-3.0517578e-6)"><circle
     sodipodi:ry="59.700001"
     sodipodi:rx="59.700001"
     sodipodi:cy="60.200001"
     sodipodi:cx="60.200001"
     id="circle8"
     r="59.700001"
     cy="60.200001"
     cx="60.200001"
     style="fill:#ffffff;fill-opacity:0;stroke:#3f3f3f;stroke-opacity:1"
     d="M 119.9,60.200001 C 119.9,93.171401 93.171401,119.9 60.200001,119.9 27.228601,119.9 0.5,93.171401 0.5,60.200001 0.5,27.228601 27.228601,0.5 60.200001,0.5 93.171401,0.5 119.9,27.228601 119.9,60.200001 z" /><g
     style="fill:#3f3f3f;fill-opacity:1"
     id="g10">
			<path
   style="fill:#3f3f3f;fill-opacity:1"
   inkscape:connector-curvature="0"
   id="path12"
   d="m 12.2,71.5 0.4,1.2 -3.3,1 c -0.5,0.2 -0.9,0.3 -1,0.3 -0.2,0.1 -0.4,0.3 -0.5,0.6 -0.1,0.2 -0.1,0.5 0,0.9 0.1,0.4 0.3,0.6 0.5,0.7 0.2,0.1 0.4,0.2 0.6,0.2 0.2,0 0.6,-0.1 1.1,-0.3 l 3.4,-1 0.4,1.2 -3.2,1 C 9.9,77.5 9.3,77.6 9,77.7 8.7,77.8 8.4,77.7 8.1,77.6 7.8,77.5 7.6,77.3 7.4,77 7.2,76.7 7,76.4 6.9,75.9 6.7,75.3 6.7,74.8 6.7,74.5 6.7,74.2 6.9,73.9 7,73.6 7.1,73.3 7.4,73.2 7.6,73 7.9,72.8 8.4,72.6 9.1,72.4 l 3.1,-0.9 z" />
			<path
   style="fill:#3f3f3f;fill-opacity:1"
   inkscape:connector-curvature="0"
   id="path14"
   d="m 8.2,80.3 5.9,-2.6 0.5,1.2 -2.9,4.1 3.9,-1.7 0.5,1.1 -5.8,2.6 -0.5,-1.2 2.8,-4.1 -3.8,1.7 -0.6,-1.1 z" />
			<path
   style="fill:#3f3f3f;fill-opacity:1"
   inkscape:connector-curvature="0"
   id="path16"
   d="m 11.3,86.9 5.6,-3.2 0.6,1.1 L 12,88 11.3,86.9 z" />
			<path
   style="fill:#3f3f3f;fill-opacity:1"
   inkscape:connector-curvature="0"
   id="path18"
   d="M 13.8,91 18.2,88 17.1,86.4 18,85.8 20.9,90 20,90.6 19,89.1 14.6,92.1 13.8,91 z" />
			<path
   style="fill:#3f3f3f;fill-opacity:1"
   inkscape:connector-curvature="0"
   id="path20"
   d="m 16.6,95 4.9,-4.2 3.1,3.6 -0.8,0.6 -2.3,-2.6 -1.1,0.9 2.1,2.4 -0.8,0.7 -2.1,-2.4 -1.3,1.2 2.4,2.7 -0.8,0.7 -3.3,-3.6 z" />
			<path
   style="fill:#3f3f3f;fill-opacity:1"
   inkscape:connector-curvature="0"
   id="path22"
   d="m 25.5,95.2 1.8,1.6 c 0.4,0.4 0.7,0.7 0.8,0.9 0.2,0.3 0.3,0.7 0.3,1.1 0,0.4 -0.1,0.8 -0.2,1.2 -0.2,0.4 -0.5,0.8 -0.9,1.3 -0.4,0.4 -0.7,0.7 -1.1,0.9 -0.4,0.2 -0.9,0.4 -1.3,0.4 -0.3,0 -0.7,-0.1 -1,-0.2 -0.3,-0.1 -0.6,-0.3 -1,-0.7 l -1.8,-1.6 4.4,-4.9 z m 0.2,1.7 -2.8,3.2 0.7,0.6 c 0.3,0.2 0.5,0.4 0.6,0.5 0.2,0.1 0.4,0.2 0.6,0.1 0.2,0 0.4,-0.1 0.7,-0.2 0.3,-0.2 0.6,-0.4 0.9,-0.8 0.3,-0.4 0.6,-0.7 0.7,-0.9 0.1,-0.3 0.2,-0.5 0.1,-0.7 -0.1,-0.2 -0.1,-0.4 -0.2,-0.6 -0.1,-0.2 -0.4,-0.4 -0.8,-0.8 l -0.5,-0.4 z" />
			<path
   style="fill:#3f3f3f;fill-opacity:1"
   inkscape:connector-curvature="0"
   id="path24"
   d="m 30.3,104.7 1.1,0.5 c -0.2,0.4 -0.2,0.8 -0.1,1 0.1,0.2 0.3,0.5 0.7,0.7 0.4,0.2 0.7,0.3 0.9,0.3 0.2,0 0.5,-0.2 0.6,-0.4 0.1,-0.1 0.1,-0.3 0.1,-0.4 0,-0.1 -0.1,-0.3 -0.3,-0.5 -0.1,-0.1 -0.4,-0.4 -0.7,-0.8 -0.5,-0.5 -0.8,-0.9 -0.9,-1.3 -0.2,-0.5 -0.1,-1 0.2,-1.4 0.2,-0.3 0.4,-0.5 0.7,-0.6 0.3,-0.1 0.6,-0.2 1,-0.1 0.4,0.1 0.8,0.2 1.2,0.5 0.7,0.4 1.1,0.9 1.3,1.4 0.2,0.5 0.1,1 -0.2,1.5 l -1.1,-0.6 c 0.1,-0.3 0.1,-0.6 0.1,-0.8 0,-0.2 -0.3,-0.4 -0.6,-0.6 -0.3,-0.2 -0.6,-0.3 -0.9,-0.3 -0.2,0 -0.3,0.1 -0.4,0.2 -0.1,0.1 -0.1,0.3 0,0.4 0.1,0.2 0.3,0.5 0.8,1 0.5,0.5 0.8,0.8 1,1.1 0.2,0.3 0.3,0.6 0.3,0.9 0,0.3 -0.1,0.7 -0.3,1 -0.2,0.3 -0.5,0.6 -0.8,0.7 -0.3,0.2 -0.7,0.2 -1.1,0.2 -0.4,-0.1 -0.8,-0.2 -1.3,-0.5 -0.7,-0.4 -1.1,-0.9 -1.3,-1.5 -0.2,-0.6 -0.3,-0.9 0,-1.6 z" />
			<path
   style="fill:#3f3f3f;fill-opacity:1"
   inkscape:connector-curvature="0"
   id="path26"
   d="m 36.7,110.7 2.2,-4.9 -1.7,-0.8 0.4,-1 4.7,2.1 -0.4,1 -1.7,-0.8 -2.2,4.9 -1.3,-0.5 z" />
			<path
   style="fill:#3f3f3f;fill-opacity:1"
   inkscape:connector-curvature="0"
   id="path28"
   d="m 46.1,114.1 -1.3,-0.4 -0.1,-1.6 -2.5,-0.8 -1,1.2 -1.3,-0.4 4.4,-5.4 1.3,0.4 0.5,7 z m -1.5,-3.1 -0.1,-2.5 -1.6,2 1.7,0.5 z" />
			<path
   style="fill:#3f3f3f;fill-opacity:1"
   inkscape:connector-curvature="0"
   id="path30"
   d="m 48.3,114.6 1.1,-5.2 -1.9,-0.4 0.2,-1.1 5,1 -0.2,1.1 -1.9,-0.4 -1.1,5.2 -1.2,-0.2 z" />
			<path
   style="fill:#3f3f3f;fill-opacity:1"
   inkscape:connector-curvature="0"
   id="path32"
   d="m 53.1,115.4 0.5,-6.4 4.8,0.4 -0.1,1.1 -3.5,-0.3 -0.1,1.4 3.2,0.3 -0.1,1.1 -3.2,-0.3 -0.1,1.7 3.6,0.3 -0.1,1.1 -4.9,-0.4 z" />
			<path
   style="fill:#3f3f3f;fill-opacity:1"
   inkscape:connector-curvature="0"
   id="path34"
   d="m 59.5,113.8 1.3,-0.2 c 0.1,0.4 0.3,0.7 0.5,0.9 0.2,0.2 0.6,0.3 1,0.3 0.4,0 0.7,-0.1 0.9,-0.3 0.2,-0.2 0.3,-0.4 0.3,-0.6 0,-0.2 -0.1,-0.3 -0.1,-0.4 -0.1,-0.1 -0.3,-0.2 -0.5,-0.3 -0.2,0 -0.5,-0.1 -1.1,-0.2 -0.7,-0.1 -1.2,-0.3 -1.5,-0.6 -0.4,-0.3 -0.6,-0.8 -0.6,-1.3 0,-0.3 0.1,-0.6 0.2,-0.9 0.1,-0.3 0.4,-0.5 0.8,-0.7 0.3,-0.2 0.8,-0.3 1.3,-0.3 0.8,0 1.4,0.1 1.8,0.5 0.4,0.3 0.7,0.8 0.7,1.4 l -1.3,0.1 c -0.1,-0.3 -0.2,-0.6 -0.4,-0.7 -0.2,-0.1 -0.5,-0.2 -0.8,-0.2 -0.4,0 -0.7,0.1 -0.9,0.3 -0.1,0.1 -0.2,0.2 -0.2,0.4 0,0.2 0.1,0.3 0.2,0.4 0.2,0.1 0.6,0.3 1.2,0.4 0.6,0.1 1.1,0.3 1.4,0.4 0.3,0.1 0.6,0.4 0.7,0.6 0.2,0.3 0.3,0.6 0.3,1 0,0.4 -0.1,0.7 -0.3,1 -0.2,0.3 -0.5,0.6 -0.8,0.8 -0.4,0.2 -0.8,0.3 -1.4,0.3 -0.8,0 -1.4,-0.1 -1.9,-0.5 -0.4,-0.3 -0.7,-0.9 -0.8,-1.6 z" />
			<path
   style="fill:#3f3f3f;fill-opacity:1"
   inkscape:connector-curvature="0"
   id="path36"
   d="m 69,112 c -0.1,-0.6 -0.2,-1.2 -0.1,-1.7 0.1,-0.4 0.2,-0.7 0.4,-1 0.2,-0.3 0.4,-0.6 0.7,-0.8 0.4,-0.3 0.8,-0.4 1.3,-0.6 0.9,-0.2 1.7,-0.1 2.4,0.3 0.7,0.4 1.1,1.2 1.4,2.2 0.2,1 0.1,1.9 -0.3,2.6 -0.4,0.7 -1.1,1.2 -2,1.4 -0.9,0.2 -1.7,0.1 -2.4,-0.3 C 69.7,113.7 69.2,113 69,112 z m 1.3,-0.3 c 0.2,0.7 0.5,1.2 0.9,1.5 0.4,0.3 0.9,0.4 1.4,0.3 0.5,-0.1 0.9,-0.4 1.1,-0.8 0.2,-0.4 0.3,-1 0.1,-1.8 -0.2,-0.7 -0.4,-1.2 -0.8,-1.5 -0.4,-0.3 -0.9,-0.4 -1.4,-0.2 -0.5,0.1 -0.9,0.4 -1.1,0.8 -0.3,0.4 -0.4,0.9 -0.2,1.7 z" />
			<path
   style="fill:#3f3f3f;fill-opacity:1"
   inkscape:connector-curvature="0"
   id="path38"
   d="m 77.6,113.1 -2.2,-6 4.1,-1.5 0.4,1 -2.9,1.1 0.5,1.4 2.5,-0.9 0.4,1 -2.5,0.9 1,2.6 -1.3,0.4 z" />
			<path
   style="fill:#3f3f3f;fill-opacity:1"
   inkscape:connector-curvature="0"
   id="path40"
   d="m 91.1,106.6 -1.2,0.7 -1.2,-1 -2.2,1.3 0.3,1.5 -1.2,0.7 -1.1,-6.8 1.2,-0.7 5.4,4.3 z m -3.3,-1 -2,-1.6 0.5,2.5 1.5,-0.9 z" />
			<path
   style="fill:#3f3f3f;fill-opacity:1"
   inkscape:connector-curvature="0"
   id="path42"
   d="m 92.3,105.7 -4,-5 1.5,-1.2 3.6,2.7 -1.7,-4.2 1.5,-1.2 4,5 -0.9,0.8 -3.2,-4 2.2,4.8 -1,0.8 -4.2,-3.2 3.2,4 -1,0.7 z" />
			<path
   style="fill:#3f3f3f;fill-opacity:1"
   inkscape:connector-curvature="0"
   id="path44"
   d="m 98.7,100.4 -4.6,-4.5 3.3,-3.4 0.8,0.8 -2.4,2.5 1,1 2.2,-2.3 0.8,0.8 -2.2,2.3 1.3,1.2 2.5,-2.6 0.8,0.8 -3.5,3.4 z" />
			<path
   style="fill:#3f3f3f;fill-opacity:1"
   inkscape:connector-curvature="0"
   id="path46"
   d="m 103.4,95.4 -5.2,-3.8 1.6,-2.2 c 0.4,-0.6 0.8,-0.9 1,-1.1 0.3,-0.2 0.6,-0.3 0.9,-0.2 0.3,0 0.7,0.2 1,0.4 0.4,0.3 0.6,0.6 0.7,1.1 0.1,0.4 0,0.9 -0.3,1.4 0.3,-0.1 0.6,-0.2 0.8,-0.2 0.3,0 0.7,0 1.3,0 l 1.5,0.1 -0.9,1.2 -1.7,-0.1 c -0.6,0 -1,0 -1.2,0 -0.2,0 -0.3,0.1 -0.4,0.2 -0.1,0.1 -0.3,0.2 -0.4,0.5 l -0.2,0.2 2.2,1.6 -0.7,0.9 z m -2.3,-3.3 0.6,-0.8 c 0.4,-0.5 0.6,-0.8 0.6,-1 0.1,-0.2 0,-0.3 0,-0.5 0,-0.2 -0.2,-0.3 -0.3,-0.4 -0.2,-0.1 -0.3,-0.2 -0.5,-0.2 -0.2,0 -0.3,0.1 -0.5,0.2 -0.1,0.1 -0.3,0.3 -0.6,0.7 l -0.6,0.8 1.3,1.2 z" />
			<path
   style="fill:#3f3f3f;fill-opacity:1"
   inkscape:connector-curvature="0"
   id="path48"
   d="m 107.5,89.4 -5.5,-3.3 0.7,-1.1 5.5,3.3 -0.7,1.1 z" />
			<path
   style="fill:#3f3f3f;fill-opacity:1"
   inkscape:connector-curvature="0"
   id="path50"
   d="m 108.9,81.8 0.9,-1 c 0.6,0.5 0.9,1 1,1.5 0.1,0.6 0,1.1 -0.3,1.8 -0.4,0.8 -0.9,1.3 -1.7,1.5 -0.8,0.2 -1.6,0.1 -2.5,-0.3 -1,-0.5 -1.6,-1.1 -1.9,-1.8 -0.3,-0.8 -0.2,-1.5 0.1,-2.4 0.3,-0.7 0.8,-1.2 1.5,-1.4 0.4,-0.1 0.8,-0.2 1.4,-0.1 l -0.3,1.3 c -0.3,-0.1 -0.6,0 -0.9,0.1 -0.3,0.1 -0.5,0.4 -0.6,0.7 -0.2,0.4 -0.2,0.9 0,1.3 0.2,0.4 0.6,0.8 1.3,1.1 0.7,0.4 1.3,0.5 1.8,0.4 0.4,-0.1 0.8,-0.4 1,-0.8 0.1,-0.3 0.2,-0.6 0.1,-0.9 -0.3,-0.4 -0.5,-0.7 -0.9,-1 z" />
			<path
   style="fill:#3f3f3f;fill-opacity:1"
   inkscape:connector-curvature="0"
   id="path52"
   d="m 114.1,74.4 -0.4,1.3 -1.6,0.1 -0.8,2.4 1.2,1 -0.4,1.3 -5.3,-4.4 0.4,-1.3 6.9,-0.4 z m -3.2,1.5 -2.5,0.1 2,1.6 0.5,-1.7 z" />
		</g><g
     style="fill:#3f3f3f;fill-opacity:1"
     id="g54">
			<path
   style="fill:#3f3f3f;fill-opacity:1"
   inkscape:connector-curvature="0"
   id="path56"
   d="M 4.7,59.9 4.8,57.5 C 4.8,57 4.9,56.6 5,56.3 5.1,55.9 5.3,55.6 5.6,55.4 5.9,55.1 6.3,55 6.7,54.8 c 0.4,-0.1 0.9,-0.2 1.5,-0.1 0.5,0 1,0.1 1.4,0.3 0.5,0.2 0.8,0.4 1.1,0.7 0.2,0.2 0.4,0.5 0.5,0.9 0.1,0.3 0.1,0.7 0.1,1.2 l -0.1,2.4 -6.5,-0.3 z m 1.1,-1.2 4.3,0.2 0,-1 c 0,-0.4 0,-0.6 0,-0.8 C 10.1,56.9 10,56.7 9.9,56.6 9.8,56.5 9.6,56.3 9.3,56.2 9,56.1 8.6,56.1 8.1,56 7.6,56 7.2,56 6.9,56.1 6.6,56.2 6.4,56.3 6.3,56.4 6.2,56.5 6,56.8 6,57 5.9,57.2 5.9,57.5 5.9,58.1 l -0.1,0.6 z" />
			<path
   style="fill:#3f3f3f;fill-opacity:1"
   inkscape:connector-curvature="0"
   id="path58"
   d="M 11.5,53.9 5.2,52.8 6,48.1 l 1.1,0.2 -0.6,3.4 1.4,0.3 0.6,-3.2 1,0.2 -0.6,3.2 1.7,0.3 0.6,-3.5 1.1,0.2 -0.8,4.7 z" />
			<path
   style="fill:#3f3f3f;fill-opacity:1"
   inkscape:connector-curvature="0"
   id="path60"
   d="M 12.6,48.2 6.4,46.3 7,44.3 C 7.2,43.5 7.4,43.1 7.5,42.8 7.7,42.5 8,42.2 8.4,42.1 8.8,42 9.2,42 9.7,42.1 c 0.4,0.1 0.7,0.3 0.9,0.5 0.2,0.2 0.4,0.5 0.4,0.7 0.1,0.3 0.1,0.5 0.1,0.7 0,0.3 -0.1,0.8 -0.3,1.3 L 10.6,46.1 13,47 12.6,48.2 z M 7.8,45.4 9.6,45.9 9.8,45.2 C 9.9,44.7 10,44.4 10,44.2 10,44 9.9,43.9 9.8,43.7 9.7,43.6 9.5,43.5 9.4,43.4 9.2,43.3 9,43.3 8.8,43.4 8.6,43.5 8.5,43.6 8.4,43.8 8.3,43.9 8.2,44.2 8.1,44.7 l -0.3,0.7 z" />
			<path
   style="fill:#3f3f3f;fill-opacity:1"
   inkscape:connector-curvature="0"
   id="path62"
   d="m 16.4,37.9 -0.6,1.3 -1.6,-0.1 -1,2.4 1.1,1.1 -0.5,1.3 -4.9,-4.9 0.5,-1.3 7,0.2 z m -3.3,1.2 -2.6,-0.1 1.9,1.7 0.7,-1.6 z" />
			<path
   style="fill:#3f3f3f;fill-opacity:1"
   inkscape:connector-curvature="0"
   id="path64"
   d="m 16.7,37.5 -5.5,-3.3 1.4,-2.4 c 0.4,-0.6 0.7,-1 0.9,-1.2 0.2,-0.2 0.6,-0.3 0.9,-0.3 0.4,0 0.7,0.1 1,0.3 0.4,0.2 0.7,0.6 0.8,1 0.1,0.4 0.1,0.9 -0.1,1.4 0.3,-0.2 0.6,-0.3 0.8,-0.3 0.3,-0.1 0.7,-0.1 1.3,-0.1 l 1.5,0 -0.8,1.3 -1.7,0.1 c -0.6,0 -1,0.1 -1.2,0.1 -0.2,0 -0.3,0.1 -0.4,0.2 -0.1,0.1 -0.2,0.3 -0.4,0.5 L 15,35 l 2.3,1.4 -0.6,1.1 z m -2.6,-3.1 0.5,-0.8 c 0.3,-0.5 0.5,-0.9 0.5,-1 0,-0.2 0,-0.3 0,-0.5 -0.1,-0.1 -0.2,-0.3 -0.3,-0.4 -0.2,-0.1 -0.4,-0.1 -0.5,-0.1 -0.2,0 -0.3,0.1 -0.5,0.3 -0.1,0.1 -0.2,0.4 -0.5,0.8 l -0.5,0.9 1.3,0.8 z" />
			<path
   style="fill:#3f3f3f;fill-opacity:1"
   inkscape:connector-curvature="0"
   id="path66"
   d="m 20.8,30.9 -4.3,-3.3 -1.2,1.5 -0.9,-0.7 3.1,-4.1 0.9,0.7 -1.2,1.5 4.3,3.3 -0.7,1.1 z" />
			<path
   style="fill:#3f3f3f;fill-opacity:1"
   inkscape:connector-curvature="0"
   id="path68"
   d="M 23.2,27.9 18.6,23.4 20,22 23.9,24.3 21.6,20.4 23,19 l 4.6,4.5 -0.9,0.9 -3.6,-3.6 2.7,4.5 -0.9,0.9 -4.5,-2.7 3.6,3.5 -0.8,0.9 z" />
			<path
   style="fill:#3f3f3f;fill-opacity:1"
   inkscape:connector-curvature="0"
   id="path70"
   d="m 28.4,22.8 -3.9,-5.1 3.8,-2.9 0.7,0.9 -2.8,2.1 0.9,1.1 2.6,-2 0.7,0.9 -2.6,2 1.1,1.4 2.9,-2.2 0.7,0.9 -4.1,2.9 z" />
			<path
   style="fill:#3f3f3f;fill-opacity:1"
   inkscape:connector-curvature="0"
   id="path72"
   d="m 33.1,19.2 -3.3,-5.6 1.1,-0.6 4.5,2.4 -2.2,-3.7 1,-0.6 3.3,5.6 -1.1,0.7 -4.4,-2.4 2.1,3.6 -1,0.6 z" />
			<path
   style="fill:#3f3f3f;fill-opacity:1"
   inkscape:connector-curvature="0"
   id="path74"
   d="m 39.9,15.5 -2.2,-4.9 -1.7,0.8 -0.4,-1 4.7,-2.1 0.4,1 -1.7,0.8 2.2,4.9 -1.3,0.5 z" />
			<path
   style="fill:#3f3f3f;fill-opacity:1"
   inkscape:connector-curvature="0"
   id="path76"
   d="M 44.7,10.2 C 44.5,9.6 44.5,9 44.6,8.5 44.7,8.1 44.8,7.8 45,7.5 45.2,7.2 45.4,6.9 45.7,6.7 46,6.4 46.5,6.2 47,6.1 47.9,5.9 48.7,6 49.4,6.4 50,7 50.5,7.7 50.7,8.7 c 0.2,1 0.2,1.9 -0.2,2.6 -0.4,0.7 -1.1,1.2 -2,1.4 -0.9,0.2 -1.7,0.1 -2.4,-0.3 -0.7,-0.5 -1.2,-1.2 -1.4,-2.2 z m 1.2,-0.3 c 0.2,0.7 0.5,1.2 0.9,1.5 0.4,0.3 0.9,0.4 1.4,0.2 0.5,-0.1 0.9,-0.4 1.1,-0.8 0.2,-0.4 0.3,-1 0.1,-1.8 C 49.2,8.3 48.9,7.8 48.5,7.5 48.1,7.2 47.6,7.2 47.1,7.3 46.6,7.4 46.2,7.7 46,8.1 c -0.2,0.4 -0.2,1 -0.1,1.8 z" />
			<path
   style="fill:#3f3f3f;fill-opacity:1"
   inkscape:connector-curvature="0"
   id="path78"
   d="m 52.3,11.7 -0.8,-6.4 4.4,-0.5 0.1,1.1 -3,0.4 0.2,1.5 2.7,-0.3 0.1,1.1 -2.7,0.3 0.3,2.7 -1.3,0.1 z" />
			<path
   style="fill:#3f3f3f;fill-opacity:1"
   inkscape:connector-curvature="0"
   id="path80"
   d="m 61.4,11.2 0.2,-5.3 -1.9,-0.1 0,-1.1 5.1,0.2 0,1.1 -1.9,-0.1 -0.2,5.3 -1.3,0 z" />
			<path
   style="fill:#3f3f3f;fill-opacity:1"
   inkscape:connector-curvature="0"
   id="path82"
   d="M 65.3,11.4 66.3,5 69,5.4 c 0.7,0.1 1.2,0.2 1.5,0.4 0.3,0.2 0.5,0.4 0.6,0.7 0.1,0.3 0.2,0.7 0.1,1 C 71.1,8 70.9,8.4 70.6,8.6 70.3,8.9 69.8,9 69.2,9 c 0.3,0.2 0.5,0.4 0.6,0.6 0.2,0.2 0.3,0.6 0.6,1.1 L 71,12.1 69.4,12 68.7,10.5 C 68.4,10 68.3,9.6 68.2,9.5 68.1,9.4 68,9.2 67.9,9.1 67.7,9 67.5,9 67.2,8.9 l -0.3,0 -0.4,2.7 -1.2,-0.2 z m 1.8,-3.5 1,0.1 c 0.6,0.1 1,0.1 1.2,0.1 0.2,0 0.3,-0.1 0.4,-0.2 0.1,-0.1 0.2,-0.3 0.2,-0.5 0,-0.2 0,-0.4 -0.1,-0.5 C 69.7,6.8 69.6,6.6 69.4,6.6 69.3,6.6 69,6.5 68.5,6.4 l -1,-0.2 -0.4,1.7 z" />
			<path
   style="fill:#3f3f3f;fill-opacity:1"
   inkscape:connector-curvature="0"
   id="path84"
   d="m 77.1,14 -1.4,-0.4 -0.1,-1.6 -2.5,-0.7 -0.9,1.3 -1.3,-0.4 4.2,-5.5 1.3,0.4 0.7,6.9 z m -1.6,-3.1 -0.2,-2.5 -1.5,2 1.7,0.5 z" />
			<path
   style="fill:#3f3f3f;fill-opacity:1"
   inkscape:connector-curvature="0"
   id="path86"
   d="m 77.5,14.3 2.6,-5.9 1.2,0.5 0.7,5 1.7,-3.9 1.1,0.5 -2.6,5.9 -1.2,-0.6 -0.7,-4.9 -1.7,3.8 -1.1,-0.4 z" />
			<path
   style="fill:#3f3f3f;fill-opacity:1"
   inkscape:connector-curvature="0"
   id="path88"
   d="m 84.1,14.9 1.1,0.5 c -0.2,0.4 -0.2,0.8 -0.1,1 0.1,0.2 0.3,0.5 0.7,0.7 0.4,0.2 0.7,0.3 0.9,0.3 0.2,0 0.5,-0.2 0.6,-0.4 0.1,-0.1 0.1,-0.3 0.1,-0.4 0,-0.1 -0.1,-0.3 -0.3,-0.5 C 87,16 86.7,15.7 86.4,15.3 85.9,14.8 85.6,14.4 85.5,14 c -0.2,-0.5 -0.1,-1 0.2,-1.4 0.2,-0.3 0.4,-0.5 0.7,-0.6 0.3,-0.1 0.6,-0.2 1,-0.1 0.4,0.1 0.8,0.2 1.2,0.5 0.7,0.4 1.1,0.9 1.3,1.4 0.2,0.5 0.1,1 -0.2,1.5 l -1.1,-0.6 c 0.1,-0.3 0.1,-0.6 0.1,-0.8 -0.1,-0.2 -0.3,-0.4 -0.6,-0.6 -0.3,-0.2 -0.6,-0.3 -0.9,-0.3 -0.2,0 -0.3,0.1 -0.4,0.2 -0.1,0.1 -0.1,0.3 0,0.4 0.1,0.2 0.3,0.5 0.8,1 0.5,0.5 0.8,0.8 1,1.1 0.2,0.3 0.3,0.6 0.3,0.9 0,0.3 -0.1,0.7 -0.3,1 -0.2,0.3 -0.5,0.6 -0.8,0.7 -0.3,0.2 -0.7,0.2 -1.1,0.2 -0.4,0 -0.8,-0.2 -1.3,-0.5 -0.7,-0.4 -1.1,-0.9 -1.3,-1.4 -0.4,-0.4 -0.3,-1 0,-1.7 z" />
			<path
   style="fill:#3f3f3f;fill-opacity:1"
   inkscape:connector-curvature="0"
   id="path90"
   d="m 88.2,19.9 3.9,-5.1 1.7,1.3 c 0.6,0.5 1,0.8 1.2,1 0.2,0.3 0.3,0.7 0.3,1.1 0,0.4 -0.2,0.8 -0.5,1.2 -0.2,0.3 -0.5,0.5 -0.8,0.7 -0.3,0.2 -0.6,0.2 -0.8,0.2 -0.3,0 -0.5,-0.1 -0.7,-0.2 -0.3,-0.1 -0.7,-0.4 -1.1,-0.8 l -0.7,-0.5 -1.5,1.9 -1,-0.8 z m 4.3,-3.4 -1.1,1.4 0.6,0.4 c 0.4,0.3 0.7,0.5 0.9,0.5 0.2,0 0.3,0.1 0.5,0 0.2,-0.1 0.3,-0.2 0.4,-0.3 0.1,-0.2 0.2,-0.4 0.2,-0.6 0,-0.2 -0.1,-0.4 -0.2,-0.5 -0.1,-0.1 -0.3,-0.3 -0.7,-0.6 l -0.6,-0.3 z" />
			<path
   style="fill:#3f3f3f;fill-opacity:1"
   inkscape:connector-curvature="0"
   id="path92"
   d="m 94.9,21.1 c 0.5,-0.5 0.9,-0.8 1.4,-1 0.3,-0.1 0.7,-0.2 1,-0.2 0.4,0 0.7,0.1 1,0.2 0.4,0.2 0.8,0.4 1.2,0.8 0.7,0.7 1,1.4 1,2.2 0,0.8 -0.4,1.6 -1.1,2.3 -0.7,0.7 -1.5,1.1 -2.3,1.1 -0.8,0 -1.6,-0.3 -2.2,-1 -0.7,-0.7 -1,-1.4 -1,-2.2 -0.1,-0.7 0.3,-1.5 1,-2.2 z m 1,0.9 c -0.5,0.5 -0.8,1 -0.8,1.5 0,0.5 0.1,0.9 0.5,1.3 0.4,0.4 0.8,0.5 1.3,0.5 0.5,0 1,-0.3 1.5,-0.8 0.5,-0.5 0.8,-1 0.8,-1.5 0,-0.5 -0.1,-0.9 -0.5,-1.3 -0.4,-0.4 -0.8,-0.6 -1.3,-0.5 -0.5,0 -1,0.3 -1.5,0.8 z" />
			<path
   style="fill:#3f3f3f;fill-opacity:1"
   inkscape:connector-curvature="0"
   id="path94"
   d="m 97.6,28.4 5.1,-3.9 1.7,2.2 c 0.4,0.5 0.7,1 0.8,1.3 0.1,0.3 0.1,0.6 0,1 -0.1,0.3 -0.3,0.6 -0.6,0.8 -0.4,0.3 -0.8,0.4 -1.2,0.4 -0.4,0 -0.8,-0.3 -1.2,-0.7 0,0.3 0,0.6 0,0.9 0,0.3 -0.2,0.7 -0.4,1.2 l -0.5,1.4 -0.9,-1.2 0.5,-1.6 c 0.2,-0.6 0.3,-0.9 0.3,-1.1 0,-0.2 0,-0.3 0,-0.5 0,-0.2 -0.2,-0.3 -0.3,-0.6 l -0.2,-0.2 -2.1,1.6 -1,-1 z m 3.7,-1.2 0.6,0.8 c 0.4,0.5 0.6,0.8 0.8,0.9 0.1,0.1 0.3,0.1 0.4,0.1 0.2,0 0.3,-0.1 0.5,-0.2 0.2,-0.1 0.3,-0.3 0.3,-0.5 0,-0.2 0,-0.4 -0.1,-0.5 -0.1,-0.1 -0.2,-0.3 -0.6,-0.8 l -0.6,-0.8 -1.3,1 z" />
			<path
   style="fill:#3f3f3f;fill-opacity:1"
   inkscape:connector-curvature="0"
   id="path96"
   d="m 102.1,34.8 4.6,-2.7 -1,-1.6 0.9,-0.6 2.6,4.4 -0.9,0.6 -1,-1.6 -4.6,2.7 -0.6,-1.2 z" />
			<path
   style="fill:#3f3f3f;fill-opacity:1"
   inkscape:connector-curvature="0"
   id="path98"
   d="m 106.1,42.8 -0.6,-1.3 1.1,-1.1 -1.1,-2.3 -1.6,0.1 -0.6,-1.3 6.9,-0.4 0.6,1.3 -4.7,5 z m 1.3,-3.2 1.8,-1.8 -2.5,0.2 0.7,1.6 z" />
			<path
   style="fill:#3f3f3f;fill-opacity:1"
   inkscape:connector-curvature="0"
   id="path100"
   d="m 106.5,44.1 5.1,-1.7 -0.6,-1.8 1,-0.3 1.6,4.9 -1,0.3 -0.6,-1.8 -5.1,1.7 -0.4,-1.3 z" />
			<path
   style="fill:#3f3f3f;fill-opacity:1"
   inkscape:connector-curvature="0"
   id="path102"
   d="m 107.6,47.7 6.3,-1.5 0.3,1.3 -6.3,1.5 -0.3,-1.3 z" />
			<path
   style="fill:#3f3f3f;fill-opacity:1"
   inkscape:connector-curvature="0"
   id="path104"
   d="m 111.3,49.3 c 0.6,-0.1 1.2,-0.1 1.7,0 0.3,0.1 0.7,0.2 1,0.5 0.3,0.2 0.5,0.5 0.7,0.7 0.2,0.4 0.4,0.8 0.5,1.3 0.1,0.9 0,1.7 -0.5,2.4 -0.5,0.7 -1.3,1.1 -2.3,1.2 -1,0.2 -1.9,0 -2.5,-0.5 -0.7,-0.5 -1.1,-1.2 -1.2,-2.1 -0.1,-0.9 0,-1.7 0.5,-2.4 0.5,-0.7 1.1,-1 2.1,-1.1 z m 0.2,1.3 c -0.7,0.1 -1.2,0.4 -1.6,0.7 -0.3,0.4 -0.4,0.8 -0.4,1.4 0,0.6 0.3,0.9 0.7,1.2 0.4,0.3 1,0.4 1.7,0.2 0.7,-0.1 1.2,-0.4 1.6,-0.7 0.3,-0.4 0.4,-0.8 0.3,-1.4 -0.1,-0.5 -0.3,-0.9 -0.7,-1.2 -0.2,-0.2 -0.8,-0.3 -1.6,-0.2 z" />
			<path
   style="fill:#3f3f3f;fill-opacity:1"
   inkscape:connector-curvature="0"
   id="path106"
   d="m 109.1,56.8 6.4,-0.1 0,1.3 -4.3,2.7 4.3,-0.1 0,1.2 -6.4,0.1 0,-1.3 4.2,-2.7 -4.2,0.1 0,-1.2 z" />
		</g><g
     style="fill:#3f3f3f;fill-opacity:1"
     id="g108">
			<g
   style="fill:#3f3f3f;fill-opacity:1"
   id="g110">
				<linearGradient
   y2="43.667"
   x2="86.500999"
   y1="43.667"
   x1="37.167"
   gradientUnits="userSpaceOnUse"
   id="XMLID_10_">
					<stop
   id="stop113"
   style="stop-color:#CDE1FF"
   offset="0.3202" />
					<stop
   id="stop115"
   style="stop-color:#C9DDFB"
   offset="0.4354" />
					<stop
   id="stop117"
   style="stop-color:#BDD1F1"
   offset="0.5534" />
					<stop
   id="stop119"
   style="stop-color:#A8BDDF"
   offset="0.6726" />
					<stop
   id="stop121"
   style="stop-color:#8BA2C7"
   offset="0.7928" />
					<stop
   id="stop123"
   style="stop-color:#677FA7"
   offset="0.9125" />
					<stop
   id="stop125"
   style="stop-color:#47608C"
   offset="1" />
				</linearGradient>
				<path
   inkscape:connector-curvature="0"
   id="path127"
   d="m 101.6,43.3 c 0,0 0,0 0,0 l 0,0 C 94.9,26.9 78.9,15.4 60.1,15.4 c -9.5,0 -18.2,2.9 -25.5,7.9 2.5,-0.8 5.3,-1.2 8.1,-1.2 17.5,0 26.8,10.6 26.8,25.9 0,1.1 -0.1,2.1 -0.2,3.1 l 0,0 c -0.2,1.3 -0.3,2.7 -0.3,4.1 0,8.7 8,16.7 17.6,16.7 11.7,0 20.7,-15.9 15,-28.6 z"
   style="fill:#3f3f3f;fill-opacity:1" />
				<linearGradient
   y2="45.479"
   x2="36.5005"
   y1="45.479"
   x1="86.834"
   gradientUnits="userSpaceOnUse"
   id="XMLID_11_">
					<stop
   id="stop130"
   style="stop-color:#47608C"
   offset="0" />
					<stop
   id="stop132"
   style="stop-color:#07284D"
   offset="1" />
				</linearGradient>
				<path
   inkscape:connector-curvature="0"
   id="path134"
   d="M 89.7,63 80.7,34.2 51.5,19 l -9.4,1.8 -7.4,2.6 c 2.5,-0.8 5.3,-1.2 8.1,-1.2 17.5,0 26.8,10.6 26.8,25.9 0,1.1 -0.1,2.1 -0.2,3.1 l 0,0 c -0.2,1.3 -0.3,2.7 -0.3,4.1 0,8.7 8,16.7 17.6,16.7 v -0.6 l 3,-8.4 z"
   style="fill:#3f3f3f;fill-opacity:1" />
			</g>
			<g
   style="fill:#3f3f3f;fill-opacity:1"
   id="g136">
				<linearGradient
   y2="44.063"
   x2="102.7715"
   y1="44.063"
   x1="42.119099"
   gradientUnits="userSpaceOnUse"
   id="XMLID_12_">
					<stop
   id="stop139"
   style="stop-color:#93ABD2"
   offset="0" />
					<stop
   id="stop141"
   style="stop-color:#39699D"
   offset="1" />
				</linearGradient>
				<path
   inkscape:connector-curvature="0"
   id="path143"
   d="m 45,20.3 c 16.3,0.8 26,10.9 26,27.3 0,0 -0.2,3.3 -0.2,3.3 -0.2,1.3 -0.3,2.6 -0.3,3.9 0,8.4 7.7,16 16.1,16 4.1,0 8.8,-2.9 11.9,-7.5 4.1,-5.9 4.8,-12.9 2,-19.2 C 93.8,27.6 78.3,17.4 60.2,17.4 c -5.3,0 -10.3,1 -15.2,2.9 z"
   style="fill:#3f3f3f;fill-opacity:1" />
			</g>
		</g><g
     style="fill:#3f3f3f;fill-opacity:1"
     id="g145">
			<g
   style="fill:#3f3f3f;fill-opacity:1"
   id="g147">
				
					<linearGradient
   gradientTransform="matrix(-0.5,-0.866,0.866,-0.5,240.6447,259.2691)"
   y2="-73.246597"
   x2="289.00031"
   y1="-73.246597"
   x1="239.66701"
   gradientUnits="userSpaceOnUse"
   id="XMLID_13_">
					<stop
   id="stop150"
   style="stop-color:#CDE1FF"
   offset="0.3202" />
					<stop
   id="stop152"
   style="stop-color:#C9DDFB"
   offset="0.4354" />
					<stop
   id="stop154"
   style="stop-color:#BDD1F1"
   offset="0.5534" />
					<stop
   id="stop156"
   style="stop-color:#A8BDDF"
   offset="0.6726" />
					<stop
   id="stop158"
   style="stop-color:#8BA2C7"
   offset="0.7928" />
					<stop
   id="stop160"
   style="stop-color:#677FA7"
   offset="0.9125" />
					<stop
   id="stop162"
   style="stop-color:#47608C"
   offset="1" />
				</linearGradient>
				<path
   inkscape:connector-curvature="0"
   id="path164"
   d="m 24.8,32.7 c 0,0 0,0 0,0 l 0,0 C 14,46.7 12,66.3 21.4,82.5 c 4.7,8.2 11.7,14.3 19.6,18.1 -1.9,-1.8 -3.7,-4 -5.1,-6.4 -8.8,-15.2 -4.2,-28.5 9,-36.1 0.9,-0.5 1.9,-1 2.8,-1.4 l 0,0 c 1.2,-0.5 2.5,-1.1 3.7,-1.8 7.5,-4.3 10.5,-15.2 5.6,-23.6 -5.7,-10 -24,-9.9 -32.2,1.4 z"
   style="fill:#3f3f3f;fill-opacity:1" />
				
					<linearGradient
   gradientTransform="matrix(-0.5,-0.866,0.866,-0.5,240.6447,259.2691)"
   y2="-71.434601"
   x2="239.00191"
   y1="-71.434601"
   x1="289.33499"
   gradientUnits="userSpaceOnUse"
   id="XMLID_14_">
					<stop
   id="stop167"
   style="stop-color:#47608C"
   offset="0" />
					<stop
   id="stop169"
   style="stop-color:#07284D"
   offset="1" />
				</linearGradient>
				<path
   inkscape:connector-curvature="0"
   id="path171"
   d="m 47.9,33.2 -20.4,22.2 1.4,32.8 6.2,7.3 5.9,5.1 c -1.9,-1.8 -3.7,-4 -5.1,-6.4 -8.8,-15.2 -4.2,-28.5 9,-36.1 0.9,-0.5 1.9,-1 2.8,-1.4 l 0,0 c 1.2,-0.5 2.5,-1.1 3.7,-1.8 7.5,-4.3 10.5,-15.2 5.6,-23.6 l -0.5,0.3 -8.6,1.6 z"
   style="fill:#3f3f3f;fill-opacity:1" />
			</g>
			<g
   style="fill:#3f3f3f;fill-opacity:1"
   id="g173">
				
					<linearGradient
   gradientTransform="matrix(-0.5,-0.866,0.866,-0.5,240.6447,259.2691)"
   y2="-72.851601"
   x2="305.27051"
   y1="-72.851601"
   x1="244.61819"
   gradientUnits="userSpaceOnUse"
   id="XMLID_15_">
					<stop
   id="stop176"
   style="stop-color:#93ABD2"
   offset="0" />
					<stop
   id="stop178"
   style="stop-color:#39699D"
   offset="1" />
				</linearGradient>
				<path
   inkscape:connector-curvature="0"
   id="path180"
   d="m 33.2,93.3 c -7.4,-14.6 -3.6,-28 10.6,-36.2 0,0 3,-1.5 3,-1.5 1.2,-0.5 2.4,-1.1 3.5,-1.7 7.2,-4.2 10,-14.7 5.8,-22 -2.1,-3.6 -6.9,-6.1 -12.4,-6.5 -7.2,-0.5 -13.6,2.3 -17.6,7.9 -10.9,14.1 -12,32.6 -3,48.3 2.6,4.5 6,8.4 10.1,11.7 z"
   style="fill:#3f3f3f;fill-opacity:1" />
			</g>
		</g><g
     style="fill:#3f3f3f;fill-opacity:1"
     id="g184">
				
					<linearGradient
   id="XMLID_16_"
   gradientUnits="userSpaceOnUse"
   x1="239.66701"
   y1="160.582"
   x2="289.00031"
   y2="160.582"
   gradientTransform="matrix(-0.5,0.866,-0.866,-0.5,344.8562,-78.7688)">
					<stop
   offset="0.3202"
   style="stop-color:#CDE1FF"
   id="stop187" />
					<stop
   offset="0.4354"
   style="stop-color:#C9DDFB"
   id="stop189" />
					<stop
   offset="0.5534"
   style="stop-color:#BDD1F1"
   id="stop191" />
					<stop
   offset="0.6726"
   style="stop-color:#A8BDDF"
   id="stop193" />
					<stop
   offset="0.7928"
   style="stop-color:#8BA2C7"
   id="stop195" />
					<stop
   offset="0.9125"
   style="stop-color:#677FA7"
   id="stop197" />
					<stop
   offset="1"
   style="stop-color:#47608C"
   id="stop199" />
				</linearGradient>
				<path
   style="fill:#3f3f3f;fill-opacity:1"
   d="m 54,104.5 c 0.1,0 0.1,0 0,0 l 0,0 c 17.5,2.4 35.5,-5.8 44.9,-22 4.7,-8.2 6.6,-17.3 5.8,-26 -0.6,2.6 -1.6,5.1 -3,7.6 C 93,79.3 79.2,82 66,74.3 65.1,73.8 64.2,73.2 63.4,72.6 l 0,0 C 62.3,71.8 61.2,71 60,70.3 52.5,66 41.6,68.9 36.8,77.2 30.9,87.3 40.2,103.1 54,104.5 z"
   id="path201"
   inkscape:connector-curvature="0" />
				
					<linearGradient
   id="XMLID_17_"
   gradientUnits="userSpaceOnUse"
   x1="289.33401"
   y1="162.39259"
   x2="239.0014"
   y2="162.39259"
   gradientTransform="matrix(-0.5,0.866,-0.866,-0.5,344.8562,-78.7688)">
					<stop
   offset="0"
   style="stop-color:#47608C"
   id="stop204" />
					<stop
   offset="1"
   style="stop-color:#07284D"
   id="stop206" />
				</linearGradient>
				<path
   style="fill:#3f3f3f;fill-opacity:1"
   d="m 42.9,84.3 29.4,6.6 27.8,-17.6 3.2,-9 1.5,-7.7 c -0.6,2.6 -1.6,5.1 -3,7.6 C 93,79.3 79.2,82 66,74.3 65.1,73.8 64.2,73.2 63.4,72.6 l 0,0 C 62.3,71.8 61.2,71 60,70.3 52.5,66 41.6,68.9 36.8,77.2 l 0.5,0.3 5.6,6.8 z"
   id="path208"
   inkscape:connector-curvature="0" />
			</g><g
     style="fill:#3f3f3f;fill-opacity:1"
     id="g210">
				
					<linearGradient
   id="XMLID_18_"
   gradientUnits="userSpaceOnUse"
   x1="244.61819"
   y1="160.9785"
   x2="305.27151"
   y2="160.9785"
   gradientTransform="matrix(-0.5,0.866,-0.866,-0.5,344.8562,-78.7688)">
					<stop
   offset="0"
   style="stop-color:#93ABD2"
   id="stop213" />
					<stop
   offset="1"
   style="stop-color:#39699D"
   id="stop215" />
				</linearGradient>
				<path
   style="fill:#3f3f3f;fill-opacity:1"
   d="m 102.3,67 c -8.9,13.7 -22.4,17.1 -36.6,8.9 0,0 -2.8,-1.8 -2.8,-1.8 -1.1,-0.8 -2.1,-1.5 -3.2,-2.2 -7.2,-4.2 -17.7,-1.3 -21.9,6 -2.1,3.6 -1.8,9 0.5,14 3.1,6.5 8.8,10.6 15.6,11.3 17.6,2.4 34.2,-5.9 43.3,-21.6 2.6,-4.6 4.3,-9.5 5.1,-14.6 z"
   id="path217"
   inkscape:connector-curvature="0" />
			</g></g>
<text
   xml:space="preserve"
   style="font-size:53.44913483px;font-style:normal;font-weight:normal;line-height:100%;letter-spacing:0px;word-spacing:0px;fill:#3f3f3f;fill-opacity:1;stroke:none;font-family:Sans"
   x="135.93689"
   y="47.659809"
   id="text4232"
   sodipodi:linespacing="100%"><tspan
     sodipodi:role="line"
     x="135.93689"
     y="47.659809"
     id="tspan4236"
     style="font-style:normal;font-variant:normal;font-weight:bold;font-stretch:normal;line-height:100%;fill:#3f3f3f;fill-opacity:1;font-family:Arial;-inkscape-font-specification:Arial Bold">U.S. Dept of</tspan><tspan
     sodipodi:role="line"
     x="135.93689"
     y="101.10895"
     id="tspan4240"
     style="font-style:normal;font-variant:normal;font-weight:bold;font-stretch:normal;line-height:100%;fill:#3f3f3f;fill-opacity:1;font-family:Arial;-inkscape-font-specification:Arial Bold">Transportation</tspan></text>

</svg>