<?xml version="1.0" encoding="UTF-8" standalone="no"?>
<!-- Created with Inkscape (http://www.inkscape.org/) -->

<svg
   xmlns:dc="http://purl.org/dc/elements/1.1/"
   xmlns:cc="http://creativecommons.org/ns#"
   xmlns:rdf="http://www.w3.org/1999/02/22-rdf-syntax-ns#"
   xmlns:svg="http://www.w3.org/2000/svg"
   xmlns="http://www.w3.org/2000/svg"
   xmlns:sodipodi="http://sodipodi.sourceforge.net/DTD/sodipodi-0.dtd"
   xmlns:inkscape="http://www.inkscape.org/namespaces/inkscape"
   id="svg2837"
   version="1.1"
   inkscape:version="0.48.2 r9819"
   width="2201.5701"
   height="700"
   xml:space="preserve"
   sodipodi:docname="logo-grey-california.svg"><metadata
     id="metadata2843"><rdf:RDF><cc:Work
         rdf:about=""><dc:format>image/svg+xml</dc:format><dc:type
           rdf:resource="http://purl.org/dc/dcmitype/StillImage" /><dc:title /></cc:Work></rdf:RDF></metadata><defs
     id="defs2841"><inkscape:perspective
       sodipodi:type="inkscape:persp3d"
       inkscape:vp_x="0 : 0.5 : 1"
       inkscape:vp_y="0 : 1000 : 0"
       inkscape:vp_z="1 : 0.5 : 1"
       inkscape:persp3d-origin="0.5 : 0.33333333 : 1"
       id="perspective2845" /><clipPath
       clipPathUnits="userSpaceOnUse"
       id="clipPath3005"><path
         d="m 708.664,708.664 5241.34,0 0,6362.4 -5241.34,0 0,-6362.4 z"
         clip-rule="evenodd"
         id="path3007"
         inkscape:connector-curvature="0" /></clipPath></defs><sodipodi:namedview
     pagecolor="#ffffff"
     bordercolor="#666666"
     borderopacity="1"
     objecttolerance="10"
     gridtolerance="10"
     guidetolerance="10"
     inkscape:pageopacity="0"
     inkscape:pageshadow="2"
     inkscape:window-width="1366"
     inkscape:window-height="724"
     id="namedview2839"
     showgrid="false"
     inkscape:zoom="0.44845607"
     inkscape:cx="1244.3463"
     inkscape:cy="229.19471"
     inkscape:window-x="0"
     inkscape:window-y="0"
     inkscape:window-maximized="0"
     inkscape:current-layer="g2847"
     fit-margin-top="0"
     fit-margin-left="0"
     fit-margin-right="0"
     fit-margin-bottom="0" /><g
     id="g2847"
     inkscape:groupmode="layer"
     inkscape:label="ink_ext_XXXXXX"
     transform="matrix(1.25,0,0,-1.25,-115.51948,884.00264)"><path
       style="fill:#3f3f3f;fill-opacity:1;fill-rule:nonzero;stroke:none"
       d="m 113.37222,679.71873 0.0393,-0.0811 -0.68569,-4.978 -2.98274,-5.89816 2.4367,-1.54697 1.23858,-1.63429 0.38914,-7.80107 0.77736,-1.31841 -0.43803,-5.01211 -3.62837,-10.40219 -1.93703,-3.61954 -0.75233,-0.14873 -0.62087,-4.50744 0.75233,0.14873 0.74325,-1.56607 -1.87787,-4.83902 -5.08418,-7.04715 0.40574,-0.53537 2.02094,2.39665 -1.36754,-2.96614 -0.78304,-0.37163 -0.34092,1.00593 -1.763933,-2.17969 -6.065076,-8.85521 -1.432354,-3.4367 1.050063,-2.81966 0.0382,-3.38689 -0.921747,-3.02754 5.521537,-7.54906 2.65366,-1.80398 0.64432,-2.28429 -0.0116,-1.91634 1.34344,-0.68977 0.3998,-0.76168 2.66368,-5.21223 0.39073,-2.47648 1.89791,-1.97748 -0.37321,-4.54155 1.29772,-2.85378 -0.55605,-4.03688 0.39072,-2.47648 -2.93927,-5.39943 0.4305,-0.53878 -1.52534,-3.92861 0.77143,-1.54471 -0.59426,-0.64999 0.68411,-0.3466 -0.60019,-0.87629 0.89539,-2.29364 -0.26267,-1.90699 1.44645,-3.60611 0.25543,-5.10763 -0.45146,-1.62863 -2.20379,-1.89198 0.242,-1.72415 3.93636,-6.59886 4.60479,-5.22724 3.70439,-8.28297 6.78448,-6.99117 1.53379,-4.80423 -0.51034,-1.87288 0.34092,-1.00593 1.46714,0.025 1.61362,-2.39257 -0.19786,-1.43643 -0.71822,0.0989 1.07257,-4.48834 -4.17718,-7.42445 2.34344,-0.57516 -0.52971,1.2843 1.79238,0.73731 2.99684,-1.14464 4.15926,-6.62956 3.06166,-0.67409 2.76827,-2.80397 1.14899,-2.10145 2.5106,0.63839 -0.0592,1.21948 -1.43077,1.88789 0.84219,-0.84785 -0.11462,0.99999 0.46121,-0.31588 0.99091,-1.60019 -0.17943,0.52944 1.00593,0.34092 -2.20814,3.20631 1.18878,-0.16375 -0.76802,1.56948 2.28429,0.64432 -1.70914,1.69912 1.14123,2.97207 -0.86128,2.5413 0.37504,-0.75827 2.12989,-0.29338 1.60018,0.99091 0.0955,0.69346 3.0594,-2.33936 2.22949,-3.23448 -1.95271,-1.90132 -1.50125,-0.2727 -1.12396,0.6343 -0.22856,-1.65933 -1.47649,-0.27611 -0.13305,-0.96588 -1.08984,0.88197 0.0933,-0.97182 1.23858,-1.6343 -0.34659,-0.6841 1.18877,-0.16375 -0.0899,0.99659 1.93203,-1.72982 -0.50467,-0.18285 0.58858,-1.04004 -0.49532,0.0682 0.52036,-1.53537 -0.50126,-0.15808 0.43644,-0.31248 -1.25359,-0.30681 0.6841,-0.34659 -1.25359,-0.30681 0.68752,-0.32182 -0.41141,-1.15467 1.18878,-0.16374 0.14873,-0.75234 1.80806,-0.98089 -0.78303,-0.37163 0.55447,-1.2877 1.05573,-1.12963 0.56949,0.6534 0.15807,-0.50126 0.96022,-1.82308 -0.0948,-4.35277 0.8215,-4.47899 2.34685,-0.55039 -0.19786,-1.43644 1.62522,-0.47622 -1.18878,0.16374 0.15214,-0.72756 -2.34685,0.55039 -1.05573,1.12962 -0.21129,1.94705 -1.25359,-0.30681 -1.21722,1.60612 0.29112,0.46462 -1.18877,0.16374 0.28771,0.43986 -0.79238,-0.6227 0.6036,0.90106 -0.96588,0.13305 -0.0933,0.97181 -3.87313,1.74483 -0.61929,0.81715 0.94111,-0.12963 -0.0591,1.21948 -0.96588,0.13304 -0.12396,0.74892 0.82308,0.8456 -0.65933,0.34318 0.50126,0.15808 -0.23859,1.74891 1.54131,0.74667 -0.77737,1.31841 0.29338,2.12989 -1.05573,1.12962 -2.37755,0.3275 -0.6036,-0.90107 -1.2536,-0.30681 -0.22421,-6.75761 -0.51627,-2.09919 -1.0307,-0.33751 -0.39231,-2.84811 0.42143,-2.25359 1.0307,0.33752 0.81148,-1.07075 1.24634,-6.70781 -1.66092,-5.09603 0.10895,-2.69003 1.27269,-1.38663 0.98524,-3.29022 1.40574,-0.42076 2.06574,-4.42326 3.14332,-3.56224 3.18562,-1.42301 1.53537,0.52036 1.59451,-0.69912 1.82308,0.96021 2.29772,-2.73915 1.99526,-6.58385 -2.03821,-6.00303 -2.11987,-3.11487 -1.25359,-0.30681 -1.67844,1.92201 -2.2993,-2.58543 1.93203,-1.72981 -0.16375,-1.18878 -1.21948,-0.0591 1.02345,-6.67711 -0.59017,-4.28454 1.95679,-1.73323 1.11829,-2.32434 3.55131,-2.43235 2.79331,-4.27111 1.69187,-5.30549 2.49216,-1.32749 0.87472,-5.92478 4.50585,-5.94546 0.01,-3.40825 1.07824,-2.79831 4.30958,-2.05731 2.06916,-4.39849 3.41601,-5.06349 3.71505,-1.24358 0.80807,-1.09551 0.48966,-1.75826 -0.44211,-1.37756 0.74892,0.12397 0.96021,-1.82308 -1.82308,-0.96021 0.60927,2.59109 -2.43801,-5.24134 0.58517,-1.06481 4.23316,-4.44421 0.47056,-0.0648 0.37729,0.907 1.62863,-0.45146 2.36254,-2.2686 -0.11962,-4.34936 -1.04571,-2.27862 -1.63022,-4.87313 0.94112,-0.12963 1.17717,-2.08009 -1.6891,-5.11738 1.01343,-3.26886 -2.28362,-4.30365 -0.6343,-1.12396 0.56382,-1.03663 2.12054,-0.54445 2.61954,-2.05164 1.1681,-3.79489 0.6841,-0.3466 6.57818,0.30523 6.44855,-0.63589 5.4085,-1.22447 0.21355,-0.28178 4.6505,-3.06324 3.40825,0.01 3.15492,-1.6459 1.82308,0.96021 4.53221,-0.62428 3.99116,-2.72006 2.4865,-3.01753 0.71822,-0.0989 2.11828,-2.20972 1.15467,-0.41141 0.99091,-1.60018 -0.49532,0.0682 0.0839,-1.22289 1.16809,-3.79489 3.4865,-2.90291 1.65933,-0.22856 5.83334,-3.45329 3.72441,-0.9925 1.42736,-1.91267 2.85718,1.3225 8.5998,-0.95745 2.86153,-3.77579 0.12964,0.94111 0.43985,-0.28771 -0.56949,-0.6534 2.02938,-6.33619 -0.45146,-1.62863 -1.42075,-1.52035 0.24199,-1.72415 2.12989,-0.29338 2.61955,-2.05164 1.06481,0.58517 0.22856,1.65934 -0.71822,0.0989 0.81715,0.61928 0.10943,-0.67121 -0.20836,-0.047 -0.006,-1.69004 0.12964,0.94112 0.81714,0.61928 0.34762,-0.22453 1.15364,0.49723 -0.12964,-0.94111 1.15467,-0.41141 -0.76802,1.56948 4.8049,-2.12554 3.44671,-4.8406 7.8834,-6.15834 2.53971,-4.46331 2.30933,-0.82281 2.17743,-3.4292 3.4865,-2.90291 2.57041,-4.24041 3.65459,-6.81241 1.34527,-5.9896 0.58359,-6.3894 -1.51627,-2.2138 1.10895,-2.57541 -0.31407,-5.76103 1.11053,2.74917 1.91634,-0.0116 0.11462,-0.99999 2.14899,-1.98683 0.64773,-2.25952 -0.0989,-0.71822 -1.04004,-0.58859 -0.91108,4.01185 -0.47056,0.0648 0.12963,0.94111 -1.08984,0.88197 -1.2536,-0.30681 -0.35594,-0.93518 1.85153,-0.48216 1.51468,-3.11079 -0.0606,-4.83697 101.76486,0.64464 -0.007,-0.0495 1.5677,1.12157 6.25308,-1.13892 0.90974,3.30679 2.96533,3.02365 -0.4601,3.62166 0.44804,1.60386 -1.46767,2.90242 -6.3428,1.40364 -1.47184,2.32257 1.8742,6.27797 -0.43228,0.89234 0.0979,1.62686 -1.89539,2.17901 1.33001,2.69371 -0.86722,2.31499 3.91974,0.2424 2.50815,4.65126 2.53169,2.07393 -0.49648,1.70873 0.94842,1.93872 0.0619,2.46461 1.79299,2.02427 -0.94117,5.07591 0.46333,2.08124 0.8922,1.16414 -1.2209,3.04508 4.66294,3.62261 1.42376,3.74071 7.2112,3.80155 4.72434,4.06839 -1.82566,3.78452 -6.52037,5.79394 -1.64746,0.68117 0.1291,3.86857 -1.52302,1.95108 0.15932,2.07264 -2.49488,6.80409 -2.48296,2.31042 -0.219,2.07429 -2.278,2.33267 0.0467,6.20163 -191.82559,220.53848 19.49489,148.12535 -154.83335,23.92669 z m 174.64532,-440.35029 -2.27064,-0.54526 0.0853,0.61915 2.18535,-0.0739 z"
       id="path3548"
       inkscape:connector-curvature="0" /><text
       xml:space="preserve"
       style="font-size:281.08364868px;font-style:normal;font-weight:normal;line-height:100%;letter-spacing:0px;word-spacing:0px;fill:#3f3f3f;fill-opacity:1;stroke:none;font-family:Sans"
       x="447.20312"
       y="-440.59964"
       id="text3777"
       sodipodi:linespacing="100%"
       transform="scale(1,-1)"><tspan
         sodipodi:role="line"
         id="tspan3779"
         x="447.20312"
         y="-440.59964"
         style="font-style:normal;font-variant:normal;font-weight:bold;font-stretch:normal;line-height:100%;fill:#3f3f3f;fill-opacity:1;font-family:Arial;-inkscape-font-specification:Arial Bold">State of</tspan><tspan
         sodipodi:role="line"
         x="447.20312"
         y="-159.51599"
         id="tspan3781"
         style="font-style:normal;font-variant:normal;font-weight:bold;font-stretch:normal;line-height:100%;fill:#3f3f3f;fill-opacity:1;font-family:Arial;-inkscape-font-specification:Arial Bold">California</tspan></text>
</g></svg>